<svg viewBox="0 93.24 221 29.42" fill="none" xmlns="http://www.w3.org/2000/svg">
    <path
        d="M11.6669 93.6475C11.6669 93.4102 11.8364 93.2407 12.0737 93.2407H15.1246C15.3618 93.2407 15.5313 93.4102 15.5313 93.6475V127.783C15.5313 128.02 15.3618 128.19 15.1246 128.19H12.0737C11.8364 128.19 11.6669 128.02 11.6669 127.783V93.6475Z"
        fill="#1E1E1E" />
    <path
        d="M19.4297 93.6475C19.4297 93.4102 19.5991 93.2407 19.8364 93.2407H22.8873C23.1246 93.2407 23.2941 93.4102 23.2941 93.6475V127.783C23.2941 128.02 23.1246 128.19 22.8873 128.19H19.8364C19.5991 128.19 19.4297 128.02 19.4297 127.783V93.6475Z"
        fill="#1E1E1E" />
    <path
        d="M27.1924 93.6475C27.1924 93.4102 27.3618 93.2407 27.5991 93.2407H30.65C30.8873 93.2407 31.0568 93.4102 31.0568 93.6475V127.783C31.0568 128.02 30.8873 128.19 30.65 128.19H27.5991C27.3618 128.19 27.1924 128.02 27.1924 127.783V93.6475Z"
        fill="#1E1E1E" />
    <path
        d="M34.9551 93.6475C34.9551 93.4102 35.1246 93.2407 35.3619 93.2407H38.4127C38.65 93.2407 38.8195 93.4102 38.8195 93.6475V127.783C38.8195 128.02 38.65 128.19 38.4127 128.19H35.3619C35.1246 128.19 34.9551 128.02 34.9551 127.783V93.6475Z"
        fill="#1E1E1E" />
    <path
        d="M42.7178 107.241C42.7178 107.003 42.8873 106.834 43.1246 106.834H46.1754C46.4127 106.834 46.5822 107.003 46.5822 107.241V114.19C46.5822 114.427 46.4127 114.597 46.1754 114.597H43.1246C42.8873 114.597 42.7178 114.427 42.7178 114.19V107.241Z"
        fill="#1E1E1E" />
    <path
        d="M66.9212 102.766C65.8364 102.766 64.8534 102.969 63.972 103.342C63.0907 103.715 62.3449 104.258 61.7347 105.003C61.1246 105.749 60.6839 106.664 60.3449 107.715C60.0398 108.766 59.8703 109.953 59.8703 111.275C59.8703 112.597 60.1415 114.529 60.65 115.817C61.1585 117.071 61.9381 118.054 62.989 118.732C64.0398 119.41 65.328 119.749 66.8873 119.749C68.4466 119.749 68.7517 119.681 69.633 119.512C70.5144 119.342 71.4297 119.071 72.3449 118.8V121.681C71.4636 122.02 70.5822 122.258 69.6669 122.393C68.7517 122.563 67.7008 122.631 66.5144 122.631C64.2432 122.631 62.3788 122.156 60.8534 121.241C59.3619 120.325 58.2432 118.969 57.4975 117.275C56.7517 115.546 56.3788 113.546 56.3788 111.241C56.3788 108.936 56.6161 108.02 57.0568 106.631C57.5314 105.207 58.2093 104.02 59.0907 103.003C59.972 101.986 61.0907 101.207 62.3788 100.664C63.7008 100.122 65.2263 99.817 66.9551 99.817C68.6839 99.817 69.1585 99.9525 70.2432 100.19C71.328 100.427 72.2771 100.732 73.1585 101.173L71.9042 103.953C71.1924 103.614 70.3788 103.342 69.5314 103.071C68.7517 102.902 67.8703 102.766 66.9212 102.766Z"
        fill="#1E1E1E" />
    <path d="M80.0398 122.359H76.7517V98.7661H80.0398V122.359Z" fill="#1E1E1E" />
    <path
        d="M87.2601 105.614V122.359H83.972V105.614H87.2601ZM85.6669 99.2746C86.1754 99.2746 86.5822 99.4102 86.9551 99.7153C87.3279 100.02 87.4974 100.495 87.4974 101.173C87.4974 101.851 87.3279 102.325 86.9551 102.631C86.5822 102.936 86.1415 103.071 85.6669 103.071C85.1923 103.071 84.6839 102.936 84.311 102.631C83.972 102.325 83.7686 101.817 83.7686 101.173C83.7686 100.529 83.9381 99.9864 84.311 99.7153C84.65 99.4102 85.1246 99.2746 85.6669 99.2746Z"
        fill="#1E1E1E" />
    <path
        d="M98.5483 122.664C97.0229 122.664 95.667 122.359 94.5144 121.749C93.3619 121.139 92.4466 120.224 91.8026 118.969C91.1585 117.681 90.8534 116.054 90.8534 114.088C90.8534 112.122 91.1924 110.325 91.8703 109.071C92.5822 107.783 93.5314 106.834 94.6839 106.258C95.8703 105.647 97.2602 105.342 98.7856 105.342C100.311 105.342 100.582 105.444 101.396 105.647C102.209 105.817 102.921 106.054 103.43 106.292L102.447 108.969C101.87 108.732 101.26 108.529 100.582 108.393C99.9381 108.224 99.328 108.156 98.7517 108.156C97.7009 108.156 96.8534 108.393 96.1754 108.834C95.4975 109.275 95.0229 109.919 94.6839 110.834C94.3788 111.715 94.2093 112.8 94.2093 114.122C94.2093 115.444 94.3788 116.461 94.7178 117.308C95.0568 118.19 95.5314 118.834 96.1754 119.308C96.8534 119.749 97.667 119.953 98.6161 119.953C99.5653 119.953 100.379 119.851 101.057 119.647C101.769 119.444 102.413 119.173 103.057 118.834V121.681C102.447 122.02 101.803 122.292 101.091 122.461C100.447 122.597 99.5653 122.664 98.5483 122.664Z"
        fill="#1E1E1E" />
    <path
        d="M109.633 112.936C109.87 112.698 116.786 105.614 116.786 105.614H120.616L113.87 112.8L121.057 122.359H117.158L111.633 114.868L109.701 116.495V122.359H106.447V98.7661H109.701L109.633 112.936Z"
        fill="#1E1E1E" />
    <path
        d="M141.464 122.359H138.108V112.224H127.531V122.359H124.175V100.19H127.531V109.376H138.108V100.19H141.464V122.359Z"
        fill="#1E1E1E" />
    <path
        d="M160.209 113.986C160.209 115.376 160.006 116.597 159.667 117.681C159.294 118.766 158.752 119.681 158.074 120.427C157.396 121.173 156.548 121.749 155.599 122.122C154.616 122.495 153.531 122.664 152.311 122.664C151.091 122.664 150.142 122.495 149.192 122.122C148.243 121.715 147.396 121.173 146.718 120.427C146.04 119.681 145.497 118.766 145.091 117.681C144.684 116.597 144.514 115.376 144.514 113.953C144.514 112.529 144.819 110.563 145.43 109.275C146.074 107.986 146.989 107.003 148.175 106.359C149.362 105.681 150.786 105.342 152.413 105.342C154.04 105.342 155.294 105.681 156.447 106.359C157.633 107.037 158.548 107.986 159.226 109.275C159.87 110.529 160.209 112.122 160.209 113.986ZM147.87 113.986C147.87 115.241 148.04 116.292 148.345 117.207C148.65 118.088 149.158 118.766 149.803 119.241C150.481 119.715 151.328 119.953 152.345 119.953C153.362 119.953 154.243 119.715 154.887 119.241C155.565 118.766 156.04 118.088 156.345 117.207C156.65 116.292 156.819 115.207 156.819 113.986C156.819 112.766 156.65 111.614 156.311 110.766C156.006 109.885 155.497 109.241 154.853 108.766C154.209 108.292 153.362 108.054 152.311 108.054C150.752 108.054 149.633 108.563 148.921 109.614C148.209 110.631 147.87 112.088 147.87 113.986Z"
        fill="#1E1E1E" />
    <path
        d="M177.735 105.614V122.359H175.091L174.65 120.156H174.48C174.142 120.732 173.667 121.207 173.125 121.58C172.582 121.953 171.938 122.224 171.294 122.393C170.616 122.563 169.938 122.664 169.26 122.664C167.972 122.664 166.853 122.461 165.938 122.054C165.057 121.614 164.379 120.97 163.904 120.054C163.464 119.139 163.226 117.986 163.226 116.563V105.614H166.548V116.088C166.548 117.376 166.819 118.359 167.362 119.003C167.904 119.647 168.786 119.953 169.938 119.953C171.091 119.953 172.006 119.715 172.684 119.275C173.362 118.834 173.803 118.156 174.074 117.275C174.379 116.393 174.514 115.308 174.514 114.088V105.614H177.735Z"
        fill="#1E1E1E" />
    <path
        d="M192.786 117.647C192.786 118.732 192.514 119.681 191.972 120.427C191.43 121.173 190.65 121.749 189.633 122.122C188.616 122.495 187.396 122.664 185.972 122.664C184.548 122.664 183.769 122.563 182.921 122.393C182.108 122.224 181.328 121.986 180.616 121.647V118.766C181.362 119.105 182.209 119.444 183.192 119.715C184.175 119.986 185.125 120.122 186.04 120.122C186.955 120.122 188.175 119.919 188.718 119.546C189.26 119.139 189.565 118.631 189.565 117.953C189.565 117.275 189.464 117.241 189.26 116.969C189.057 116.664 188.65 116.359 188.074 116.054C187.497 115.715 186.684 115.342 185.599 114.936C184.548 114.495 183.633 114.088 182.887 113.647C182.142 113.207 181.565 112.698 181.192 112.122C180.786 111.512 180.616 110.766 180.616 109.817C180.616 108.359 181.192 107.275 182.345 106.495C183.531 105.715 185.091 105.308 186.989 105.308C188.887 105.308 188.955 105.41 189.836 105.614C190.752 105.783 191.633 106.088 192.48 106.495L191.396 109.003C190.921 108.766 190.413 108.597 189.904 108.461C189.396 108.292 188.887 108.156 188.379 108.054C187.87 107.953 187.362 107.885 186.819 107.885C185.836 107.885 185.057 108.054 184.548 108.359C184.04 108.664 183.769 109.105 183.769 109.647C183.769 110.19 183.87 110.393 184.108 110.664C184.345 110.969 184.786 111.241 185.396 111.546C186.006 111.851 186.819 112.19 187.836 112.597C188.887 113.003 189.769 113.41 190.481 113.817C191.226 114.224 191.769 114.732 192.142 115.342C192.582 115.953 192.786 116.732 192.786 117.647Z"
        fill="#1E1E1E" />
    <path
        d="M202.853 105.308C204.311 105.308 205.599 105.614 206.65 106.224C207.701 106.834 208.514 107.681 209.057 108.834C209.633 109.986 209.938 111.308 209.938 112.868V114.664H198.684C198.684 116.393 199.158 117.681 200.006 118.597C200.887 119.512 202.074 119.953 203.633 119.953C205.192 119.953 205.667 119.851 206.481 119.681C207.328 119.478 208.209 119.173 209.091 118.766V121.512C208.277 121.885 207.43 122.156 206.548 122.359C205.701 122.529 204.684 122.631 203.497 122.631C202.311 122.631 200.447 122.325 199.226 121.681C197.972 121.037 197.023 120.088 196.311 118.834C195.633 117.546 195.294 115.986 195.294 114.122C195.294 112.258 195.599 110.631 196.209 109.342C196.853 108.054 197.735 107.037 198.853 106.359C200.006 105.681 201.362 105.308 202.853 105.308ZM202.853 107.851C201.667 107.851 200.718 108.224 200.006 109.003C199.294 109.783 198.887 110.868 198.752 112.258H206.65C206.65 111.376 206.514 110.631 206.243 109.953C205.972 109.275 205.565 108.766 204.989 108.393C204.447 108.054 203.735 107.851 202.853 107.851Z"
        fill="#1E1E1E" />
</svg>