<?xml version="1.0" standalone="no"?>
<!DOCTYPE svg PUBLIC "-//W3C//DTD SVG 20010904//EN"
 "http://www.w3.org/TR/2001/REC-SVG-20010904/DTD/svg10.dtd">
<svg version="1.0" xmlns="http://www.w3.org/2000/svg"
 width="700.000000pt" height="700.000000pt" viewBox="0 0 700.000000 700.000000"
 preserveAspectRatio="xMidYMid meet">
<metadata>
Created by potrace 1.14, written by Peter Selinger 2001-2017
</metadata>
<g transform="translate(0.000000,700.000000) scale(0.100000,-0.100000)"
fill="#000000" stroke="none">
<path d="M4709 6928 c-60 -86 -77 -118 -173 -313 -76 -153 -192 -413 -210
-473 -5 -15 -13 -21 -24 -18 -60 16 -177 43 -247 56 -91 17 -109 20 -200 30
-49 6 -110 13 -135 16 -53 6 -404 6 -440 0 -14 -3 -59 -7 -100 -11 -242 -19
-608 -114 -845 -219 -366 -162 -665 -367 -940 -643 -265 -266 -449 -540 -625
-928 -73 -160 -168 -493 -195 -678 -3 -27 -8 -56 -10 -65 -3 -20 -17 -148 -21
-207 -5 -62 -4 -353 1 -415 9 -114 15 -161 51 -373 17 -105 115 -431 146 -490
5 -10 11 -28 13 -39 8 -41 165 -346 236 -458 40 -63 108 -161 152 -218 l79
-103 -15 -32 c-37 -79 -47 -150 -52 -372 -8 -345 -28 -567 -66 -709 -6 -21 -8
-40 -5 -43 6 -6 206 128 361 241 203 148 493 383 660 536 127 116 429 414 480
474 6 6 33 36 60 66 43 47 84 95 178 204 403 469 843 1160 1109 1741 25 55 58
126 72 157 14 31 26 59 26 62 0 5 29 73 60 141 23 50 168 433 175 460 1 6 5
17 8 25 12 30 66 199 101 315 20 66 40 134 46 150 40 129 174 698 193 820 3
17 14 82 25 145 19 103 26 147 37 215 1 11 6 47 10 80 4 33 9 63 11 67 2 3 6
34 9 69 3 34 8 65 11 68 6 5 -2 -255 -11 -369 -11 -140 -33 -358 -45 -445 -5
-38 -12 -90 -15 -115 -3 -25 -10 -67 -15 -95 -6 -27 -12 -63 -14 -80 -4 -37
-11 -74 -42 -233 -13 -68 -26 -136 -29 -150 -4 -21 -59 -245 -109 -442 -19
-72 -119 -386 -163 -510 -153 -431 -378 -914 -593 -1272 -11 -18 -27 -46 -36
-63 -39 -71 -323 -491 -371 -550 -5 -5 -38 -48 -73 -95 -36 -47 -67 -87 -70
-90 -3 -3 -25 -30 -50 -60 -25 -30 -47 -57 -50 -60 -3 -3 -18 -21 -34 -40
-112 -137 -454 -488 -605 -620 -41 -36 -79 -70 -85 -76 -33 -31 -266 -218
-364 -292 -217 -161 -526 -362 -709 -463 -35 -18 -63 -38 -63 -42 0 -5 7 -6
16 -3 22 8 214 9 284 1 30 -4 127 -23 215 -42 242 -54 251 -55 385 -51 104 3
139 9 205 32 96 33 246 107 341 169 69 45 91 63 172 139 45 42 44 42 147 22
11 -2 34 -7 50 -9 17 -3 37 -8 45 -10 8 -2 40 -7 70 -10 30 -3 89 -10 130 -14
97 -11 457 -11 535 -1 33 5 85 11 115 14 179 18 517 102 685 171 192 78 388
179 535 273 83 54 250 174 280 203 9 8 49 43 90 79 425 372 751 903 896 1461
13 53 27 107 29 120 3 13 7 35 10 49 12 56 16 77 21 116 2 23 7 52 9 64 21
111 34 495 21 610 -3 19 -7 66 -11 103 -3 37 -8 76 -10 85 -1 9 -6 39 -9 65
-27 197 -116 508 -204 707 -238 544 -618 995 -1097 1305 -170 110 -168 108
-170 135 -2 14 -6 57 -9 95 -7 70 -43 330 -51 369 -2 12 -7 37 -9 57 -3 20 -8
42 -10 50 -3 8 -7 30 -10 49 -9 54 -16 93 -22 120 -3 14 -8 36 -10 50 -3 14
-10 43 -16 65 -5 22 -12 48 -13 57 -6 30 -48 193 -51 196 -1 2 -22 -25 -45
-60z"/>
</g>
</svg>
