<?xml version="1.0" encoding="iso-8859-1"?>

<svg version="1.1" id="Layer_1" xmlns="http://www.w3.org/2000/svg" xmlns:xlink="http://www.w3.org/1999/xlink" 
	 viewBox="0 0 508 508" xml:space="preserve">
<path style="fill:#F4EFEF;" d="M452,494c0,4.4-3.6,8-8,8H68c-4.4,0-8-3.6-8-8V14c0-4.4,3.6-8,8-8h376c4.4,0,8,3.6,8,8V494z"/>
<rect x="100" y="46" style="fill:#AEB1B4;" width="312" height="88"/>
<rect x="100" y="334" style="fill:#7D8B95;" width="120" height="120"/>
<path d="M312,180H100c-2.4,0-4-1.6-4-4s1.6-4,4-4h212c2.4,0,4,1.6,4,4S314.4,180,312,180z"/>
<path d="M312,220H100c-2.4,0-4-1.6-4-4s1.6-4,4-4h212c2.4,0,4,1.6,4,4S314.4,220,312,220z"/>
<path d="M312,260H100c-2.4,0-4-1.6-4-4s1.6-4,4-4h212c2.4,0,4,1.6,4,4S314.4,260,312,260z"/>
<path d="M312,300H100c-2.4,0-4-1.6-4-4s1.6-4,4-4h212c2.4,0,4,1.6,4,4S314.4,300,312,300z"/>
<path d="M412,340H264c-2.4,0-4-1.6-4-4s1.6-4,4-4h148c2.4,0,4,1.6,4,4S414.4,340,412,340z"/>
<path d="M412,380H264c-2.4,0-4-1.6-4-4s1.6-4,4-4h148c2.4,0,4,1.6,4,4S414.4,380,412,380z"/>
<path d="M412,420H264c-2.4,0-4-1.6-4-4s1.6-4,4-4h148c2.4,0,4,1.6,4,4S414.4,420,412,420z"/>
<path d="M412,460H264c-2.4,0-4-1.6-4-4s1.6-4,4-4h148c2.4,0,4,1.6,4,4S414.4,460,412,460z"/>
<path d="M412,180h-64c-2.4,0-4-1.6-4-4s1.6-4,4-4h64c2.4,0,4,1.6,4,4S414.4,180,412,180z"/>
<path d="M412,220h-64c-2.4,0-4-1.6-4-4s1.6-4,4-4h64c2.4,0,4,1.6,4,4S414.4,220,412,220z"/>
<path d="M412,260h-64c-2.4,0-4-1.6-4-4s1.6-4,4-4h64c2.4,0,4,1.6,4,4S414.4,260,412,260z"/>
<path d="M412,300h-64c-2.4,0-4-1.6-4-4s1.6-4,4-4h64c2.4,0,4,1.6,4,4S414.4,300,412,300z"/>
<path d="M442,508H66c-6.8,0-12-5.2-12-12V12c0-6.8,5.2-12,12-12h376c6.8,0,12,5.2,12,12v484C454,502.8,448.8,508,442,508z M66,8
	c-2.4,0-4,1.6-4,4v484c0,2.4,1.6,4,4,4h376c2.4,0,4-1.6,4-4V12c0-2.4-1.6-4-4-4H66z"/>
<path d="M410,140H98c-2.4,0-4-1.6-4-4V48c0-2.4,1.6-4,4-4h312c2.4,0,4,1.6,4,4v88C414,138.4,412.4,140,410,140z M102,132h304V52H102
	V132z"/>
<path d="M218,460H98c-2.4,0-4-1.6-4-4V336c0-2.4,1.6-4,4-4h120c2.4,0,4,1.6,4,4v120C222,458.4,220.4,460,218,460z M102,452h112V340
	H102V452z"/>
</svg>