<svg version="1.1" viewBox="0 0 820 480" xml:space="preserve" xmlns="http://www.w3.org/2000/svg" xmlns:xlink="http://www.w3.org/1999/xlink"><defs><linearGradient id="linearGradient2397" x1="487.32" x2="695.65" y1="438.29" y2="-29.987" gradientUnits="userSpaceOnUse"><stop stop-color="#086c00" stop-opacity=".90217" offset="0"/><stop stop-color="#fff106" stop-opacity=".70652" offset="1"/></linearGradient><linearGradient id="linearGradient3369" x1="732.66" x2="114.22" y1="429.33" y2="108.93" gradientUnits="userSpaceOnUse"><stop stop-color="#00109b" stop-opacity=".94022" offset="0"/><stop stop-color="#0be0ff" stop-opacity=".70652" offset="1"/></linearGradient><linearGradient id="linearGradient3369-2" x1="410" x2="410" y1="480" y2="-2.2648e-6" gradientTransform="matrix(.14202 0 0 .14202 -36.278 -8.173)" gradientUnits="userSpaceOnUse"><stop stop-color="#9d009b" stop-opacity=".93207" offset="0"/><stop stop-color="#ff9e01" stop-opacity=".76902" offset="1"/></linearGradient></defs><g display="none"><rect width="820" height="480" fill="url(#linearGradient2397)" stroke-linejoin="round" stroke-width="2.8913"/><g transform="matrix(.22933 0 0 .22933 295.34 125.34)" fill="#fff"><g fill="#fff">

<g transform="matrix(.1 0 0 -.1 0 511)" fill="#fff">

<path d="m295.4 4974.7c-37.6-19.8-94.9-69.2-128.5-108.7l-59.3-75.1-5.9-2759.5c-4-2662.6-4-2763.4 31.6-2830.6 21.7-37.5 71.2-94.9 110.7-128.5l75.1-59.3h2087.4l75.1 59.3c39.5 33.6 89 90.9 110.7 128.5 35.6 67.2 35.6 168 31.6 2830.6l-5.9 2759.5-61.3 77.1c-120.6 150.2-75.1 144.3-1193.9 144.3-934.9-0.1-1004.1-2.1-1067.4-37.6zm2016.3-2967.1v-2688.3h-1897.7v5376.6h1897.6v-2688.3z"/>

<path d="m730.3 4221.5v-158.1h1265v316.2h-1265z"/>

<path d="m730.3 3589v-158.1h1265v316.2h-1265z"/>

<path d="m730.3 2956.4v-158.1h1265v316.2h-1265z"/>

<path d="m1200.8 716.8c-197.7-75.1-310.3-174-407.2-357.8-43.5-83-53.4-126.5-53.4-249.1 0-132.4 7.9-162.1 67.2-272.8 77.1-140.3 156.2-217.4 304.4-294.5 146.3-75.1 355.8-75.1 502.1 0 148.3 77.1 227.3 154.2 304.4 294.5 57.3 110.7 65.2 142.3 65.2 272.8 0 122.6-9.9 166-53.4 251-77.1 148.3-154.2 227.3-292.6 302.4-142.2 75.3-318.1 97-436.7 53.5zm355.8-341.9c87-65.2 126.5-160.1 116.6-290.6-11.9-197.7-130.5-298.5-336-284.6-197.7 11.9-298.5 130.5-284.7 336 7.9 130.5 51.4 203.6 154.2 257 89 47.4 272.8 37.5 349.9-17.8z"/>

<path d="m3446.3 4994.4c-96.9-23.7-262.9-122.6-326.2-193.7-31.6-37.6-81-112.7-112.7-170l-53.4-102.8v-4091.8l53.4-102.8c79.2-150.2 156.2-227.3 296.6-304.4l124.5-67.2 1729.6-11.8v-630.6h-790.7v-316.3h4111.6v316.2h-790.6v630.6l865.8 5.9 863.8 5.9 124.5 67.2c140.4 77.1 217.4 154.2 296.5 304.4l53.4 102.8v4091.9l-53.4 102.8c-79.1 150.2-156.2 227.3-296.5 304.4l-124.5 67.2-2955.2 4c-1624.9 0-2982.9-4-3016.5-11.9zm5979.5-334c37.5-17.8 87-59.3 108.7-88.9 41.5-55.4 41.5-71.2 47.4-1785l4-1727.6h-6325.4l4 1727.6c5.9 1713.8 5.9 1729.6 47.4 1785 21.7 29.6 71.2 71.2 108.7 88.9 63.2 33.6 247.1 35.6 3002.6 35.6 2755.6-0.1 2939.4-2 3002.6-35.6zm156.2-4064.1c-7.9-168-43.5-237.2-156.1-292.6-63.3-33.6-247.1-35.6-3002.6-35.6s-2939.4 2-3002.6 35.6c-112.7 55.4-148.3 124.5-156.2 292.6l-7.9 146.3h6333.4zm-2209.9-960.7v-316.3h-1897.6v632.6h1897.6z"/>

<path d="m8089.6 4355.9c-106.7-51.4-102.8-215.5 5.9-266.9 130.5-63.3 260.9 59.3 205.6 193.7-35.6 85.1-122.6 116.7-211.5 73.2z"/>

<path d="m5316.3 3905.3v-158.1h316.2v316.2h-316.2z"/>

<path d="m7213.9 3905.3v-158.1h316.2v316.2h-316.2z"/>

<path d="m3727 3677.9c85-124.5 158.1-227.3 166-227.3s81 102.8 166 227.3l150.2 227.3h-632.5z"/>

<path d="m5316.3 3272.7v-158.1h316.2v316.2h-316.2z"/>

<path d="m7213.9 3272.7v-158.1h316.2v316.2h-316.2z"/>

<path d="m6201.8 2960.4c-124.5-130.5-229.3-262.9-268.8-336-90.9-168-142.3-389.4-142.3-600.9v-173.9h-158.2v316.2h-316.2v-632.6h474.4v-158.2h1265v158.2h474.5v632.6h-316.2v-316.2h-158.2v173.9c0 211.5-51.4 432.9-142.3 600.9-59.3 110.7-450.7 549.5-490.2 549.5-8 0-108.8-96.9-221.5-213.5zm328.2-340c51.4-55.3 116.6-150.2 146.3-213.5 49.4-104.8 53.4-136.4 59.3-413.1l7.9-302.4h-640.5l7.9 302.4c5.9 276.7 9.9 308.4 59.3 413.1 47.4 102.8 217.4 312.3 253 312.3 7.9 0 55.4-45.4 106.8-98.8z"/>

<path d="m5316.3 2640.2v-158.2h316.2v316.2h-316.2z"/>

<path d="m7213.9 2640.2v-158.2h316.2v316.2h-316.2z"/>

<path d="m8629.2 2254.7c85-124.5 158.1-227.3 166.1-227.3 7.9 0 81 102.8 166 227.3l150.2 227.3h-632.5z"/>

<path d="m305.3-1340.9c-83-35.6-183.8-156.2-197.7-233.3-5.9-35.6-9.9-725.4-5.9-1532l5.9-1464.7 61.3-77.1c33.6-41.5 90.9-90.9 128.5-108.7 63.3-33.6 328.1-35.6 4702.6-35.6 4477.2 0 4637.3 2 4704.6 37.6 37.6 19.8 94.9 69.2 128.5 108.7l59.3 75.1 5.9 1494.4c4 1678.2 13.8 1569.5-140.3 1692.1l-77.1 61.3-4657.1 4c-3821.1 3.9-4669.1-0.1-4718.5-21.8zm9280.6-1711.8v-1423.3h-9171.9v2846.4h9172v-1423.1z"/>

<path d="m888.5-2103.9v-158.1h632.5v316.2h-632.5z"/>

<path d="m1837.3-2103.9v-158.1h632.6v316.2h-632.6z"/>

<path d="m2786.1-2103.9v-158.1h632.6v316.2h-632.6z"/>

<path d="m3734.9-2103.9v-158.1h632.6v316.2h-632.6z"/>

<path d="m4683.7-2103.9v-158.1h632.6v316.2h-632.6z"/>

<path d="m5632.5-2103.9v-158.1h632.6v316.2h-632.6z"/>

<path d="m6581.4-2103.9v-158.1h632.6v316.2h-632.6z"/>

<path d="m7530.2-2103.9v-158.1h632.6v316.2h-632.6z"/>

<path d="m8479-2103.9v-158.1h632.6v316.2h-632.6z"/>

<path d="m888.5-2736.5v-158.1h632.5v316.2h-632.5z"/>

<path d="m1837.3-2736.5v-158.1h632.6v316.2h-632.6z"/>

<path d="m2786.1-2736.5v-158.1h632.6v316.2h-632.6z"/>

<path d="m3734.9-2736.5v-158.1h632.6v316.2h-632.6z"/>

<path d="m4683.7-2736.5v-158.1h632.6v316.2h-632.6z"/>

<path d="m5632.5-2736.5v-158.1h632.6v316.2h-632.6z"/>

<path d="m6581.4-2736.5v-158.1h632.6v316.2h-632.6z"/>

<path d="m7530.2-2736.5v-158.1h632.6v316.2h-632.6z"/>

<path d="m8479-2736.5v-158.1h632.6v316.2h-632.6z"/>

<path d="m888.5-3369v-158.1h632.5v316.2h-632.5z"/>

<path d="m1837.3-3369v-158.1h632.6v316.2h-632.6z"/>

<path d="m2786.1-3369v-158.1h632.6v316.2h-632.6z"/>

<path d="m3734.9-3369v-158.1h632.6v316.2h-632.6z"/>

<path d="m4683.7-3369v-158.1h632.6v316.2h-632.6z"/>

<path d="m5632.5-3369v-158.1h632.6v316.2h-632.6z"/>

<path d="m6581.4-3369v-158.1h632.6v316.2h-632.6z"/>

<path d="m7530.2-3369v-158.1h632.6v316.2h-632.6z"/>

<path d="m8479-3369v-158.1h632.6v316.2h-632.6z"/>

<path d="m888.5-4001.6v-158.1h632.5v316.2h-632.5z"/>

<path d="m1837.3-4001.6v-158.1h632.6v316.2h-632.6z"/>

<path d="m2786.1-4001.6v-158.1h4427.8v316.2h-4427.8z"/>

<path d="m7530.2-4001.6v-158.1h632.6v316.2h-632.6z"/>

<path d="m8479-4001.6v-158.1h632.6v316.2h-632.6z"/>

</g>

</g></g><rect width="820" height="480" display="inline" fill="url(#linearGradient3369)" stroke-linejoin="round" stroke-width="2.8913"/><g transform="matrix(33.333 0 0 33.333 39.149 -174.82)" display="inline" fill="#fff"><path d="m14.14 10.017v-0.0105h-0.0075a3.8736 3.8569 0 0 0-6.0147 0h-0.00716v0.0105a3.8668 3.8501 0 0 0 0 4.8564v0.0105h0.00754a3.8736 3.8569 0 0 0 6.0147 0h8e-3v-0.0105a3.8668 3.8501 0 0 0 0-4.8564zm-2.8265-0.01051v-1.0235a1.7081 1.7007 0 0 1 0.9571 1.0235zm1.1059 0.37518a6.3406 6.3132 0 0 1 0.32142 1.8759h-1.4274v-1.8759zm-1.4828-1.3987v1.0235h-0.9571a1.7081 1.7007 0 0 1 0.9571-1.0235zm0 1.3987v1.8759h-1.4274a6.3406 6.3132 0 0 1 0.32142-1.8759zm-1.8038 1.8759h-1.5024a3.4795 3.4644 0 0 1 0.67525-1.8759h1.1244a6.7645 6.7353 0 0 0-0.29768 1.8759zm0 0.37518a6.7645 6.7353 0 0 0 0.2973 1.8759h-1.1244a3.4795 3.4644 0 0 1-0.67525-1.8759zm0.37681 0h1.427v1.8759h-1.1059a6.3406 6.3132 0 0 1-0.32142-1.8759zm1.427 2.2511v1.0235a1.7081 1.7007 0 0 1-0.9571-1.0235zm0.37681 1.0235v-1.0235h0.9571a1.7081 1.7007 0 0 1-0.9571 1.0235zm0-1.3987v-1.8759h1.4274a6.3406 6.3132 0 0 1-0.32142 1.8759zm1.8038-1.8759h1.5024a3.4795 3.4644 0 0 1-0.67525 1.8759h-1.1244a6.7645 6.7353 0 0 0 0.29768-1.8759zm0-0.37518a6.7645 6.7353 0 0 0-0.2973-1.8759h1.1244a3.4795 3.4644 0 0 1 0.67525 1.8759zm0.50945-2.2511h-0.94241a3.2119 3.1981 0 0 0-0.54299-0.89969 3.5066 3.4914 0 0 1 1.4854 0.89969zm-3.5179-0.89969a3.2119 3.1981 0 0 0-0.54261 0.89969h-0.94316a3.5066 3.4914 0 0 1 1.4854-0.89969zm-1.4854 5.7771h0.94241a3.2119 3.1981 0 0 0 0.54299 0.89969 3.5066 3.4914 0 0 1-1.4854-0.89969zm3.5179 0.89969a3.2119 3.1981 0 0 0 0.54261-0.89969h0.94278a3.5066 3.4914 0 0 1-1.4854 0.89969z" fill="#fff" stroke-width=".376"/></g></g><g transform="matrix(7.0414 0 0 7.0414 255.45 57.55)" clip-rule="evenodd" fill-rule="evenodd" stroke-linejoin="round" stroke-miterlimit="1.4142"><rect x="-36.278" y="-8.173" width="116.45" height="68.168" fill="url(#linearGradient3369-2)" stroke-linejoin="round" stroke-width=".41062"/><g id="options_list" transform="matrix(.89446 0 0 .88472 .39524 4.4651)" fill="#fff">

<g id="window">

<path d="m3.745 35.705v-22.929c0-1.67 1.356-3.026 3.026-3.026h34.649c1.668 0 3.028 1.354 3.028 3.026v22.929c0 1.671-1.357 3.026-3.028 3.026h-34.649c-1.67 0-3.026-1.355-3.026-3.026zm38.789 0v-22.929c0-0.611-0.498-1.11-1.114-1.11h-34.649c-0.613 0-1.11 0.497-1.11 1.11v22.929c0 0.612 0.497 1.111 1.11 1.111h34.649c0.614 0 1.114-0.499 1.114-1.111z"/>

<path id="window-actions" d="m7.107 13.589c0-0.507 0.413-0.919 0.919-0.919 0.507 0 0.918 0.412 0.918 0.919 0 0.504-0.411 0.917-0.918 0.917-0.506 0-0.919-0.413-0.919-0.917zm2.6 0c0-0.507 0.412-0.919 0.918-0.919s0.919 0.412 0.919 0.919c0 0.504-0.413 0.917-0.919 0.917s-0.918-0.413-0.918-0.917zm2.599 0c0-0.507 0.412-0.919 0.917-0.919 0.506 0 0.919 0.412 0.919 0.919 0 0.504-0.413 0.917-0.919 0.917-0.505 0-0.917-0.413-0.917-0.917z"/>

</g>

<path id="settings" d="m23.365 28.029-0.279-1.185c-0.313-0.091-0.609-0.214-0.89-0.366l-1.159 0.718c-0.302 0.189-0.654 0.248-0.905 0l-0.527-0.531c-0.252-0.248-0.175-0.585 0-0.904l0.714-1.16c-0.193-0.361-0.342-0.751-0.433-1.161l-1.114-0.267c-0.349-0.078-0.64-0.287-0.64-0.638v-0.749c0-0.351 0.291-0.537 0.64-0.638l1.278-0.301 0.363-0.759c-0.209-0.336-0.417-0.673-0.623-1.009-0.191-0.302-0.249-0.655 0-0.904l0.529-0.528c0.25-0.251 0.586-0.175 0.903 0l1.083 0.67 0.736-0.301c0.101-0.4 0.209-0.801 0.324-1.198 0.101-0.349 0.285-0.641 0.638-0.641h0.749c0.353 0 0.562 0.292 0.64 0.641l0.303 1.195 0.883 0.366c0.315-0.187 0.632-0.37 0.954-0.548 0.318-0.174 0.654-0.25 0.904 0l0.53 0.529c0.25 0.249 0.191 0.602 0 0.905l-0.558 0.936 0.281 0.6c0.464 0.113 0.902 0.23 1.296 0.345 0.347 0.101 0.64 0.287 0.64 0.64v0.749c0 0.351-0.291 0.558-0.64 0.638l-1.124 0.286-0.351 1.002c0.22 0.366 0.434 0.741 0.643 1.113 0.174 0.319 0.248 0.656 0 0.904l-0.53 0.53c-0.25 0.251-0.6 0.19-0.902 0l-1.022-0.606c-0.322 0.187-0.666 0.336-1.028 0.442l-0.276 1.185c-0.081 0.349-0.288 0.641-0.641 0.641h-0.749c-0.353 0-0.536-0.294-0.64-0.641zm3.303-5.605c0-1.263-1.026-2.289-2.291-2.289-1.259 0-2.285 1.026-2.285 2.289 0 1.26 1.026 2.286 2.285 2.286 1.265 0 2.291-1.026 2.291-2.286z"/>

<path id="grid" d="m17.566 34.392v-1.158h1.159v1.158zm1.983 0v-1.158h1.158v1.158zm1.984 0v-1.158h1.157v1.158zm1.982 0v-1.158h1.161v1.158zm1.984 0v-1.158h1.159v1.158zm1.983 0v-1.158h1.16v1.158zm1.986 0v-1.158h1.157v1.158zm-11.902-1.849v-1.16h1.159v1.16zm1.983 0v-1.16h1.158v1.16zm1.984 0v-1.16h1.157v1.16zm1.982 0v-1.16h1.161v1.16zm1.984 0v-1.16h1.159v1.16zm1.983 0v-1.16h1.16v1.16zm1.986 0v-1.16h1.157v1.16z"/>

<path id="option-lines" d="m12.493 34.392h-3.292c-0.294 0-0.532-0.239-0.532-0.532 0-0.292 0.238-0.532 0.532-0.532h3.292c0.291 0 0.532 0.24 0.532 0.532s-0.24 0.531-0.532 0.532zm25.155 0h-3.293c-0.293 0-0.531-0.239-0.531-0.532 0-0.292 0.238-0.532 0.531-0.532h3.293c0.291 0 0.531 0.24 0.531 0.532s-0.239 0.531-0.531 0.532zm-23.793-1.928h-4.669c-0.294 0-0.532-0.238-0.532-0.531s0.238-0.533 0.532-0.533h4.669c0.291 0 0.531 0.24 0.531 0.533 0 0.292-0.239 0.53-0.531 0.531zm25.155 0h-4.669c-0.294 0-0.532-0.238-0.532-0.531s0.238-0.533 0.532-0.533h4.669c0.291 0 0.531 0.24 0.531 0.533 0 0.292-0.239 0.53-0.531 0.531zm-26.517-2.381h-3.292c-0.294 0-0.532-0.238-0.532-0.532 0-0.291 0.238-0.532 0.532-0.532h3.292c0.291 0 0.532 0.241 0.532 0.532 0 0.293-0.24 0.531-0.532 0.532zm25.155 0h-3.293c-0.293 0-0.531-0.238-0.531-0.532 0-0.291 0.238-0.532 0.531-0.532h3.293c0.291 0 0.531 0.241 0.531 0.532 0 0.293-0.239 0.531-0.531 0.532zm-23.793-1.928h-4.669c-0.294 0-0.532-0.239-0.532-0.532 0-0.291 0.238-0.532 0.532-0.532h4.669c0.291 0 0.531 0.241 0.531 0.532 0 0.292-0.239 0.531-0.531 0.532zm25.155 0h-4.669c-0.294 0-0.532-0.239-0.532-0.532 0-0.291 0.238-0.532 0.532-0.532h4.669c0.291 0 0.531 0.241 0.531 0.532 0 0.292-0.239 0.531-0.531 0.532z"/>

</g></g></svg>
