<svg version="1.1" viewBox="0 0 820 480" xml:space="preserve" xmlns="http://www.w3.org/2000/svg"><defs><linearGradient id="linearGradient2397" x1="487.32" x2="695.65" y1="438.29" y2="-29.987" gradientUnits="userSpaceOnUse"><stop stop-color="#086c00" stop-opacity=".90217" offset="0"/><stop stop-color="#fff106" stop-opacity=".70652" offset="1"/></linearGradient><linearGradient id="linearGradient3369" x1="732.66" x2="114.22" y1="429.33" y2="108.93" gradientUnits="userSpaceOnUse"><stop stop-color="#00109b" stop-opacity=".94022" offset="0"/><stop stop-color="#0be0ff" stop-opacity=".70652" offset="1"/></linearGradient><linearGradient id="linearGradient3369-2" x1="410" x2="410" y1="480" y2="-2.2648e-6" gradientTransform="matrix(.14202 0 0 .14202 -36.278 -8.173)" gradientUnits="userSpaceOnUse"><stop stop-color="#9d009b" stop-opacity=".93207" offset="0"/><stop stop-color="#ff9e01" stop-opacity=".76902" offset="1"/></linearGradient><linearGradient id="linearGradient6756" x1="820" x2="-54.858" y1="-5.6843e-14" y2="544.79" gradientUnits="userSpaceOnUse"><stop stop-color="#040097" offset="0"/><stop stop-color="#e90000" stop-opacity=".85598" offset="1"/></linearGradient><linearGradient id="linearGradient10024" x1="5.1423" x2="260.78" y1="143.51" y2="143.51" gradientUnits="userSpaceOnUse"><stop stop-color="#fff" stop-opacity="0" offset="0"/><stop stop-color="#fff" offset="1"/></linearGradient><linearGradient id="linearGradient19669" x1="820" x2="5.404e-6" y1="480" y2="1.0242e-6" gradientUnits="userSpaceOnUse"><stop stop-color="#321500" offset="0"/><stop stop-color="#f4a700" stop-opacity=".99728" offset="1"/></linearGradient><linearGradient id="linearGradient26638" x1="401.32" x2="401.32" y1="15.843" y2="495.84" gradientUnits="userSpaceOnUse"><stop stop-color="#28ffce" offset="0"/><stop offset="1"/></linearGradient></defs><g display="none"><rect width="820" height="480" fill="url(#linearGradient2397)" stroke-linejoin="round" stroke-width="2.8913"/><g transform="matrix(.22933 0 0 .22933 295.34 125.34)" fill="#fff"><g fill="#fff">

<g transform="matrix(.1 0 0 -.1 0 511)" fill="#fff">

<path d="m295.4 4974.7c-37.6-19.8-94.9-69.2-128.5-108.7l-59.3-75.1-5.9-2759.5c-4-2662.6-4-2763.4 31.6-2830.6 21.7-37.5 71.2-94.9 110.7-128.5l75.1-59.3h2087.4l75.1 59.3c39.5 33.6 89 90.9 110.7 128.5 35.6 67.2 35.6 168 31.6 2830.6l-5.9 2759.5-61.3 77.1c-120.6 150.2-75.1 144.3-1193.9 144.3-934.9-0.1-1004.1-2.1-1067.4-37.6zm2016.3-2967.1v-2688.3h-1897.7v5376.6h1897.6v-2688.3z"/>

<path d="m730.3 4221.5v-158.1h1265v316.2h-1265z"/>

<path d="m730.3 3589v-158.1h1265v316.2h-1265z"/>

<path d="m730.3 2956.4v-158.1h1265v316.2h-1265z"/>

<path d="m1200.8 716.8c-197.7-75.1-310.3-174-407.2-357.8-43.5-83-53.4-126.5-53.4-249.1 0-132.4 7.9-162.1 67.2-272.8 77.1-140.3 156.2-217.4 304.4-294.5 146.3-75.1 355.8-75.1 502.1 0 148.3 77.1 227.3 154.2 304.4 294.5 57.3 110.7 65.2 142.3 65.2 272.8 0 122.6-9.9 166-53.4 251-77.1 148.3-154.2 227.3-292.6 302.4-142.2 75.3-318.1 97-436.7 53.5zm355.8-341.9c87-65.2 126.5-160.1 116.6-290.6-11.9-197.7-130.5-298.5-336-284.6-197.7 11.9-298.5 130.5-284.7 336 7.9 130.5 51.4 203.6 154.2 257 89 47.4 272.8 37.5 349.9-17.8z"/>

<path d="m3446.3 4994.4c-96.9-23.7-262.9-122.6-326.2-193.7-31.6-37.6-81-112.7-112.7-170l-53.4-102.8v-4091.8l53.4-102.8c79.2-150.2 156.2-227.3 296.6-304.4l124.5-67.2 1729.6-11.8v-630.6h-790.7v-316.3h4111.6v316.2h-790.6v630.6l865.8 5.9 863.8 5.9 124.5 67.2c140.4 77.1 217.4 154.2 296.5 304.4l53.4 102.8v4091.9l-53.4 102.8c-79.1 150.2-156.2 227.3-296.5 304.4l-124.5 67.2-2955.2 4c-1624.9 0-2982.9-4-3016.5-11.9zm5979.5-334c37.5-17.8 87-59.3 108.7-88.9 41.5-55.4 41.5-71.2 47.4-1785l4-1727.6h-6325.4l4 1727.6c5.9 1713.8 5.9 1729.6 47.4 1785 21.7 29.6 71.2 71.2 108.7 88.9 63.2 33.6 247.1 35.6 3002.6 35.6 2755.6-0.1 2939.4-2 3002.6-35.6zm156.2-4064.1c-7.9-168-43.5-237.2-156.1-292.6-63.3-33.6-247.1-35.6-3002.6-35.6s-2939.4 2-3002.6 35.6c-112.7 55.4-148.3 124.5-156.2 292.6l-7.9 146.3h6333.4zm-2209.9-960.7v-316.3h-1897.6v632.6h1897.6z"/>

<path d="m8089.6 4355.9c-106.7-51.4-102.8-215.5 5.9-266.9 130.5-63.3 260.9 59.3 205.6 193.7-35.6 85.1-122.6 116.7-211.5 73.2z"/>

<path d="m5316.3 3905.3v-158.1h316.2v316.2h-316.2z"/>

<path d="m7213.9 3905.3v-158.1h316.2v316.2h-316.2z"/>

<path d="m3727 3677.9c85-124.5 158.1-227.3 166-227.3s81 102.8 166 227.3l150.2 227.3h-632.5z"/>

<path d="m5316.3 3272.7v-158.1h316.2v316.2h-316.2z"/>

<path d="m7213.9 3272.7v-158.1h316.2v316.2h-316.2z"/>

<path d="m6201.8 2960.4c-124.5-130.5-229.3-262.9-268.8-336-90.9-168-142.3-389.4-142.3-600.9v-173.9h-158.2v316.2h-316.2v-632.6h474.4v-158.2h1265v158.2h474.5v632.6h-316.2v-316.2h-158.2v173.9c0 211.5-51.4 432.9-142.3 600.9-59.3 110.7-450.7 549.5-490.2 549.5-8 0-108.8-96.9-221.5-213.5zm328.2-340c51.4-55.3 116.6-150.2 146.3-213.5 49.4-104.8 53.4-136.4 59.3-413.1l7.9-302.4h-640.5l7.9 302.4c5.9 276.7 9.9 308.4 59.3 413.1 47.4 102.8 217.4 312.3 253 312.3 7.9 0 55.4-45.4 106.8-98.8z"/>

<path d="m5316.3 2640.2v-158.2h316.2v316.2h-316.2z"/>

<path d="m7213.9 2640.2v-158.2h316.2v316.2h-316.2z"/>

<path d="m8629.2 2254.7c85-124.5 158.1-227.3 166.1-227.3 7.9 0 81 102.8 166 227.3l150.2 227.3h-632.5z"/>

<path d="m305.3-1340.9c-83-35.6-183.8-156.2-197.7-233.3-5.9-35.6-9.9-725.4-5.9-1532l5.9-1464.7 61.3-77.1c33.6-41.5 90.9-90.9 128.5-108.7 63.3-33.6 328.1-35.6 4702.6-35.6 4477.2 0 4637.3 2 4704.6 37.6 37.6 19.8 94.9 69.2 128.5 108.7l59.3 75.1 5.9 1494.4c4 1678.2 13.8 1569.5-140.3 1692.1l-77.1 61.3-4657.1 4c-3821.1 3.9-4669.1-0.1-4718.5-21.8zm9280.6-1711.8v-1423.3h-9171.9v2846.4h9172v-1423.1z"/>

<path d="m888.5-2103.9v-158.1h632.5v316.2h-632.5z"/>

<path d="m1837.3-2103.9v-158.1h632.6v316.2h-632.6z"/>

<path d="m2786.1-2103.9v-158.1h632.6v316.2h-632.6z"/>

<path d="m3734.9-2103.9v-158.1h632.6v316.2h-632.6z"/>

<path d="m4683.7-2103.9v-158.1h632.6v316.2h-632.6z"/>

<path d="m5632.5-2103.9v-158.1h632.6v316.2h-632.6z"/>

<path d="m6581.4-2103.9v-158.1h632.6v316.2h-632.6z"/>

<path d="m7530.2-2103.9v-158.1h632.6v316.2h-632.6z"/>

<path d="m8479-2103.9v-158.1h632.6v316.2h-632.6z"/>

<path d="m888.5-2736.5v-158.1h632.5v316.2h-632.5z"/>

<path d="m1837.3-2736.5v-158.1h632.6v316.2h-632.6z"/>

<path d="m2786.1-2736.5v-158.1h632.6v316.2h-632.6z"/>

<path d="m3734.9-2736.5v-158.1h632.6v316.2h-632.6z"/>

<path d="m4683.7-2736.5v-158.1h632.6v316.2h-632.6z"/>

<path d="m5632.5-2736.5v-158.1h632.6v316.2h-632.6z"/>

<path d="m6581.4-2736.5v-158.1h632.6v316.2h-632.6z"/>

<path d="m7530.2-2736.5v-158.1h632.6v316.2h-632.6z"/>

<path d="m8479-2736.5v-158.1h632.6v316.2h-632.6z"/>

<path d="m888.5-3369v-158.1h632.5v316.2h-632.5z"/>

<path d="m1837.3-3369v-158.1h632.6v316.2h-632.6z"/>

<path d="m2786.1-3369v-158.1h632.6v316.2h-632.6z"/>

<path d="m3734.9-3369v-158.1h632.6v316.2h-632.6z"/>

<path d="m4683.7-3369v-158.1h632.6v316.2h-632.6z"/>

<path d="m5632.5-3369v-158.1h632.6v316.2h-632.6z"/>

<path d="m6581.4-3369v-158.1h632.6v316.2h-632.6z"/>

<path d="m7530.2-3369v-158.1h632.6v316.2h-632.6z"/>

<path d="m8479-3369v-158.1h632.6v316.2h-632.6z"/>

<path d="m888.5-4001.6v-158.1h632.5v316.2h-632.5z"/>

<path d="m1837.3-4001.6v-158.1h632.6v316.2h-632.6z"/>

<path d="m2786.1-4001.6v-158.1h4427.8v316.2h-4427.8z"/>

<path d="m7530.2-4001.6v-158.1h632.6v316.2h-632.6z"/>

<path d="m8479-4001.6v-158.1h632.6v316.2h-632.6z"/>

</g>

</g></g></g><g transform="matrix(7.0414,0,0,7.0414,255.45,57.55)" clip-rule="evenodd" display="none" fill-rule="evenodd" stroke-linejoin="round" stroke-miterlimit="1.4142"><rect x="-36.278" y="-8.173" width="116.45" height="68.168" display="inline" fill="url(#linearGradient3369-2)" stroke-linejoin="round" stroke-width=".41062"/><g id="options_list" transform="matrix(.89446 0 0 .88472 .39524 4.4651)" fill="#fff">

<g id="window">

<path d="m3.745 35.705v-22.929c0-1.67 1.356-3.026 3.026-3.026h34.649c1.668 0 3.028 1.354 3.028 3.026v22.929c0 1.671-1.357 3.026-3.028 3.026h-34.649c-1.67 0-3.026-1.355-3.026-3.026zm38.789 0v-22.929c0-0.611-0.498-1.11-1.114-1.11h-34.649c-0.613 0-1.11 0.497-1.11 1.11v22.929c0 0.612 0.497 1.111 1.11 1.111h34.649c0.614 0 1.114-0.499 1.114-1.111z"/>

<path id="window-actions" d="m7.107 13.589c0-0.507 0.413-0.919 0.919-0.919 0.507 0 0.918 0.412 0.918 0.919 0 0.504-0.411 0.917-0.918 0.917-0.506 0-0.919-0.413-0.919-0.917zm2.6 0c0-0.507 0.412-0.919 0.918-0.919s0.919 0.412 0.919 0.919c0 0.504-0.413 0.917-0.919 0.917s-0.918-0.413-0.918-0.917zm2.599 0c0-0.507 0.412-0.919 0.917-0.919 0.506 0 0.919 0.412 0.919 0.919 0 0.504-0.413 0.917-0.919 0.917-0.505 0-0.917-0.413-0.917-0.917z"/>

</g>

<path id="settings" d="m23.365 28.029-0.279-1.185c-0.313-0.091-0.609-0.214-0.89-0.366l-1.159 0.718c-0.302 0.189-0.654 0.248-0.905 0l-0.527-0.531c-0.252-0.248-0.175-0.585 0-0.904l0.714-1.16c-0.193-0.361-0.342-0.751-0.433-1.161l-1.114-0.267c-0.349-0.078-0.64-0.287-0.64-0.638v-0.749c0-0.351 0.291-0.537 0.64-0.638l1.278-0.301 0.363-0.759c-0.209-0.336-0.417-0.673-0.623-1.009-0.191-0.302-0.249-0.655 0-0.904l0.529-0.528c0.25-0.251 0.586-0.175 0.903 0l1.083 0.67 0.736-0.301c0.101-0.4 0.209-0.801 0.324-1.198 0.101-0.349 0.285-0.641 0.638-0.641h0.749c0.353 0 0.562 0.292 0.64 0.641l0.303 1.195 0.883 0.366c0.315-0.187 0.632-0.37 0.954-0.548 0.318-0.174 0.654-0.25 0.904 0l0.53 0.529c0.25 0.249 0.191 0.602 0 0.905l-0.558 0.936 0.281 0.6c0.464 0.113 0.902 0.23 1.296 0.345 0.347 0.101 0.64 0.287 0.64 0.64v0.749c0 0.351-0.291 0.558-0.64 0.638l-1.124 0.286-0.351 1.002c0.22 0.366 0.434 0.741 0.643 1.113 0.174 0.319 0.248 0.656 0 0.904l-0.53 0.53c-0.25 0.251-0.6 0.19-0.902 0l-1.022-0.606c-0.322 0.187-0.666 0.336-1.028 0.442l-0.276 1.185c-0.081 0.349-0.288 0.641-0.641 0.641h-0.749c-0.353 0-0.536-0.294-0.64-0.641zm3.303-5.605c0-1.263-1.026-2.289-2.291-2.289-1.259 0-2.285 1.026-2.285 2.289 0 1.26 1.026 2.286 2.285 2.286 1.265 0 2.291-1.026 2.291-2.286z"/>

<path id="grid" d="m17.566 34.392v-1.158h1.159v1.158zm1.983 0v-1.158h1.158v1.158zm1.984 0v-1.158h1.157v1.158zm1.982 0v-1.158h1.161v1.158zm1.984 0v-1.158h1.159v1.158zm1.983 0v-1.158h1.16v1.158zm1.986 0v-1.158h1.157v1.158zm-11.902-1.849v-1.16h1.159v1.16zm1.983 0v-1.16h1.158v1.16zm1.984 0v-1.16h1.157v1.16zm1.982 0v-1.16h1.161v1.16zm1.984 0v-1.16h1.159v1.16zm1.983 0v-1.16h1.16v1.16zm1.986 0v-1.16h1.157v1.16z"/>

<path id="option-lines" d="m12.493 34.392h-3.292c-0.294 0-0.532-0.239-0.532-0.532 0-0.292 0.238-0.532 0.532-0.532h3.292c0.291 0 0.532 0.24 0.532 0.532s-0.24 0.531-0.532 0.532zm25.155 0h-3.293c-0.293 0-0.531-0.239-0.531-0.532 0-0.292 0.238-0.532 0.531-0.532h3.293c0.291 0 0.531 0.24 0.531 0.532s-0.239 0.531-0.531 0.532zm-23.793-1.928h-4.669c-0.294 0-0.532-0.238-0.532-0.531s0.238-0.533 0.532-0.533h4.669c0.291 0 0.531 0.24 0.531 0.533 0 0.292-0.239 0.53-0.531 0.531zm25.155 0h-4.669c-0.294 0-0.532-0.238-0.532-0.531s0.238-0.533 0.532-0.533h4.669c0.291 0 0.531 0.24 0.531 0.533 0 0.292-0.239 0.53-0.531 0.531zm-26.517-2.381h-3.292c-0.294 0-0.532-0.238-0.532-0.532 0-0.291 0.238-0.532 0.532-0.532h3.292c0.291 0 0.532 0.241 0.532 0.532 0 0.293-0.24 0.531-0.532 0.532zm25.155 0h-3.293c-0.293 0-0.531-0.238-0.531-0.532 0-0.291 0.238-0.532 0.531-0.532h3.293c0.291 0 0.531 0.241 0.531 0.532 0 0.293-0.239 0.531-0.531 0.532zm-23.793-1.928h-4.669c-0.294 0-0.532-0.239-0.532-0.532 0-0.291 0.238-0.532 0.532-0.532h4.669c0.291 0 0.531 0.241 0.531 0.532 0 0.292-0.239 0.531-0.531 0.532zm25.155 0h-4.669c-0.294 0-0.532-0.239-0.532-0.532 0-0.291 0.238-0.532 0.532-0.532h4.669c0.291 0 0.531 0.241 0.531 0.532 0 0.292-0.239 0.531-0.531 0.532z"/>

</g></g><g transform="matrix(.26164 .43146 -.43146 .26164 451.63 63.683)" clip-rule="evenodd" fill-rule="evenodd" stroke-linejoin="round" stroke-miterlimit="1.4142"><rect transform="matrix(1.0276,-1.6946,1.6946,1.0276,-572.01,699.88)" width="820" height="480" fill="url(#linearGradient6756)" stroke-linejoin="round" stroke-width="2.8913"/><g transform="rotate(-3.7439 270.8 235.92)" fill="#fbfbfb">
	<g fill="#fbfbfb">
		<g fill="#fbfbfb">
			<path d="m442.73 297.67c5.12 0 8.533-3.413 8.533-8.533s-3.413-8.533-8.533-8.533-8.533 3.413-8.533 8.533 3.413 8.533 8.533 8.533z"/>
			<path d="m485.4 92.867c5.12 0 8.533-3.413 8.533-8.533s-3.413-8.533-8.533-8.533-8.533 3.413-8.533 8.533c0 5.119 3.413 8.533 8.533 8.533z"/>
			<path d="m24.6 408.6c-5.12 0-8.533 3.413-8.533 8.533s3.413 8.533 8.533 8.533 8.533-3.413 8.533-8.533-3.413-8.533-8.533-8.533z"/>
			<path d="m75.8 195.27c-5.12 0-8.533 3.413-8.533 8.533s3.413 8.533 8.533 8.533 8.533-3.413 8.533-8.533-3.413-8.533-8.533-8.533z"/>
			<path d="m75.8 33.133c-14.507 0-25.6-11.093-25.6-25.6 0-5.12-3.413-8.533-8.533-8.533s-8.533 3.413-8.533 8.533c0 14.507-11.093 25.6-25.6 25.6-5.121 0-8.534 3.414-8.534 8.534s3.413 8.533 8.533 8.533c14.507 0 25.6 11.093 25.6 25.6 0 5.12 3.413 8.533 8.533 8.533s8.534-3.413 8.534-8.533c0-14.507 11.093-25.6 25.6-25.6 5.12 0 8.533-3.413 8.533-8.533s-3.413-8.534-8.533-8.534z"/>
			<path d="m502.47 451.27h-13.653l-20.48-20.48v-13.653c0-5.12-3.413-8.533-8.533-8.533s-8.533 3.413-8.533 8.533v13.653l-20.48 20.48h-13.653c-5.12 0-8.533 3.413-8.533 8.533s3.413 8.533 8.533 8.533h13.653l20.48 20.48v13.653c0 5.12 3.413 8.533 8.533 8.533s8.533-3.413 8.533-8.533v-13.653l20.48-20.48h13.653c5.12 0 8.533-3.413 8.533-8.533s-3.413-8.533-8.533-8.533z"/>
			<path d="m355.76 266.4c0.788-14.72 0.79-25.919 0.79-29.322 0-20.48-0.853-40.96-2.56-60.587-3.413-35.84-11.947-69.12-25.6-98.133-13.21-28.255-27.838-46.72-40.36-58.665-0.165-0.158-0.329-0.314-0.493-0.47-0.083-0.078-0.166-0.157-0.248-0.235-14.883-14.089-26.601-18.712-29.237-19.782-0.242-0.099-0.407-0.167-0.489-0.208h-5.12c-1.707 0.853-40.107 13.653-71.68 80.213-13.653 29.013-22.187 62.293-25.6 98.133-1.707 19.627-2.56 40.107-2.56 60.587 0 3.238 1e-3 14.926 0.837 30.307-10.947 7.889-43.504 37.875-43.504 98.546v34.133c0 6.827 3.413 11.947 9.387 15.36 2.56 0.853 5.12 1.707 7.68 1.707 3.413 0 6.827-1.707 11.093-4.267l48.853-34.049c5.71 4.624 14.54 10.268 26.998 14.506-13.038 17.712-14.001 41.918-1.611 60.503l35.84 52.907c1.707 1.707 4.267 3.414 6.827 3.414s5.12-1.707 7.68-3.413l34.987-52.907c12.626-19.728 11.376-44.557-2.377-61.679 12.001-4.212 20.545-9.709 26.109-14.224l51.361 35.797c3.413 2.56 6.827 3.413 10.24 3.413 2.56 0 5.12-0.853 7.68-2.56 5.973-3.413 9.387-8.533 9.387-15.36v-34.133c0-63.597-35.77-93.475-44.31-99.532zm-183.53-87.35c3.413-33.28 11.947-64.853 24.747-92.16 1.321-2.838 2.655-5.554 3.994-8.177 15.684 9.25 34.547 14.151 54.032 14.151 19.486 0 38.348-4.901 54.032-14.151 1.34 2.623 2.673 5.339 3.994 8.177 13.653 27.307 21.333 58.027 24.747 92.16 1.707 18.773 2.56 38.4 2.56 58.88 0 27.307-3.413 102.4-23.04 122.88l-1.706 1.706c-0.302 0.302-0.568 0.639-0.816 0.989-3.371 3.407-12.007 10.751-27.344 15.224 0.324-3.565 0.648-7.255 0.925-11.02 0.521-6.248 0.782-12.587 0.782-18.847 0-40.96-11.093-85.333-34.133-85.333s-34.133 44.373-34.133 85.333c0 7.025 0.327 14.151 0.984 21.136 0.228 2.739 0.474 5.387 0.723 7.877-12.907-3.764-21.065-9.222-25.336-12.958-0.426-1.236-1.079-2.364-1.97-3.255l-1.706-1.706c-11.093-11.093-18.773-42.667-22.187-86.187 0-1.489-1e-3 -2.329-0.568-3.086-0.858-13.216-1.139-24.942-1.139-32.754-2e-3 -19.625 0.851-40.105 2.558-58.879zm-45.227 186.88c-485 185.28-242.5 92.642 0 0zm157.01 79.359-28.16 41.813-28.16-41.813c-9.361-12.765-8.536-29.771 0.778-40.866 0.862 2.683 1.798 5.242 2.808 7.652 5.451 13.39 12.878 20.855 21.445 21.97 0.056 7e-3 0.111 0.018 0.167 0.025 0.266 0.032 0.534 0.054 0.802 0.073 0.084 6e-3 0.166 0.017 0.25 0.022 0.35 0.021 0.702 0.032 1.056 0.032s0.706-0.011 1.056-0.032c0.083-5e-3 0.165-0.016 0.248-0.022 0.269-0.02 0.539-0.041 0.806-0.074 0.051-6e-3 0.1-0.016 0.151-0.022 10.113-1.306 18.747-11.439 25.899-29.717 8.534 11.093 9.388 28.159 0.854 40.959z"/>
			<path d="m255 246.47c37.547 0 68.267-30.72 68.267-68.267s-30.72-68.267-68.267-68.267-68.267 30.72-68.267 68.267 30.72 68.267 68.267 68.267zm0-119.47c28.16 0 51.2 23.04 51.2 51.2s-23.04 51.2-51.2 51.2-51.2-23.04-51.2-51.2 23.04-51.2 51.2-51.2z"/>
			<path d="m255 212.33c18.773 0 34.133-15.36 34.133-34.133s-15.36-34.133-34.133-34.133-34.133 15.36-34.133 34.133 15.36 34.133 34.133 34.133zm17.067-34.133c-581.71 310.44-290.86 155.22 0 0z"/>
		</g>
	</g>
</g></g><g display="none"><g transform="matrix(2.0568,0,0,2.0568,407.94,-25.638)"><rect transform="matrix(.48619 0 0 .48619 -198.34 12.465)" width="820" height="480" ry="0" fill="url(#linearGradient19669)" stroke-linejoin="round" stroke-width="2.8913"/><path d="m-32.671 99.819h24.99v29.901h-24.99zm34.899 0h19.992v4.9981h-19.992zm0 24.99h19.992v4.9981h-19.992zm0-12.539h19.992v4.9981h-19.992zm-34.899 25.166h54.803v4.9981h-54.803zm0 24.377h54.803v4.9981h-54.803zm0-12.539h54.803v4.9981h-54.803zm-1.403-74.971v9.5577h-11.048v100.14h81.197v-9.5577h11.048v-100.14zm65.15 104.78h-71.288v-90.316h71.288v85.581zm11.136-9.6454h-6.138v-85.669h-65.15v-4.472h71.288z" fill="#fff" stroke-width=".87685"/></g></g><g transform="matrix(33.333 0 0 33.333 39.149 -174.82)" display="none"><rect transform="matrix(.03 0 0 .03 -1.1745 5.2447)" width="820" height="480" display="inline" fill="url(#linearGradient3369)" stroke-linejoin="round" stroke-width="2.8913"/><path d="m14.14 10.017v-0.0105h-0.0075a3.8736 3.8569 0 0 0-6.0147 0h-0.00716v0.0105a3.8668 3.8501 0 0 0 0 4.8564v0.0105h0.00754a3.8736 3.8569 0 0 0 6.0147 0h8e-3v-0.0105a3.8668 3.8501 0 0 0 0-4.8564zm-2.8265-0.01051v-1.0235a1.7081 1.7007 0 0 1 0.9571 1.0235zm1.1059 0.37518a6.3406 6.3132 0 0 1 0.32142 1.8759h-1.4274v-1.8759zm-1.4828-1.3987v1.0235h-0.9571a1.7081 1.7007 0 0 1 0.9571-1.0235zm0 1.3987v1.8759h-1.4274a6.3406 6.3132 0 0 1 0.32142-1.8759zm-1.8038 1.8759h-1.5024a3.4795 3.4644 0 0 1 0.67525-1.8759h1.1244a6.7645 6.7353 0 0 0-0.29768 1.8759zm0 0.37518a6.7645 6.7353 0 0 0 0.2973 1.8759h-1.1244a3.4795 3.4644 0 0 1-0.67525-1.8759zm0.37681 0h1.427v1.8759h-1.1059a6.3406 6.3132 0 0 1-0.32142-1.8759zm1.427 2.2511v1.0235a1.7081 1.7007 0 0 1-0.9571-1.0235zm0.37681 1.0235v-1.0235h0.9571a1.7081 1.7007 0 0 1-0.9571 1.0235zm0-1.3987v-1.8759h1.4274a6.3406 6.3132 0 0 1-0.32142 1.8759zm1.8038-1.8759h1.5024a3.4795 3.4644 0 0 1-0.67525 1.8759h-1.1244a6.7645 6.7353 0 0 0 0.29768-1.8759zm0-0.37518a6.7645 6.7353 0 0 0-0.2973-1.8759h1.1244a3.4795 3.4644 0 0 1 0.67525 1.8759zm0.50945-2.2511h-0.94241a3.2119 3.1981 0 0 0-0.54299-0.89969 3.5066 3.4914 0 0 1 1.4854 0.89969zm-3.5179-0.89969a3.2119 3.1981 0 0 0-0.54261 0.89969h-0.94316a3.5066 3.4914 0 0 1 1.4854-0.89969zm-1.4854 5.7771h0.94241a3.2119 3.1981 0 0 0 0.54299 0.89969 3.5066 3.4914 0 0 1-1.4854-0.89969zm3.5179 0.89969a3.2119 3.1981 0 0 0 0.54261-0.89969h0.94278a3.5066 3.4914 0 0 1-1.4854 0.89969z" fill="#fff" stroke-width=".376"/></g><g transform="matrix(8.0165 0 0 8.0165 281.74 111.74)" display="none"><g transform="matrix(.12474 0 0 .12474 -34.062 -15.915)" display="inline"><rect x="-8.6776" y="15.843" width="820" height="480" display="inline" fill="url(#linearGradient26638)" stroke-linejoin="round" stroke-width="18.765"/><g display="none"><path transform="matrix(1.0101,0,0,1.0101,129.23,110.89)" d="m80.21 18.405c-1.275 0.037-2.487 0.56-3.389 1.461l-15 15c-1.975 1.93-2.012 5.096-0.082 7.071s5.096 2.012 7.071 0.082c0.028-0.027 0.056-0.055 0.083-0.083l6.463-6.463v42.928h-10c-2.761-0.039-5.032 2.168-5.071 4.929s2.168 5.032 4.929 5.071c0.047 1e-3 0.094 1e-3 0.141 0h14.182c0.535 0.088 1.08 0.088 1.615 0h9.203c2.761 0.039 5.032-2.168 5.071-4.929s-2.168-5.032-4.929-5.071c-0.047-1e-3 -0.094-1e-3 -0.141 0h-5v-55c-1e-3 -2.762-2.241-4.999-5.003-4.998-0.047 0-0.095 1e-3 -0.143 2e-3zm55.143 0c-1.275 0.037-2.487 0.56-3.389 1.461l-15 15c-1.992 1.913-2.057 5.078-0.144 7.07s5.078 2.057 7.07 0.144c0.049-0.047 0.097-0.095 0.144-0.144l6.465-6.465v42.93h-10c-2.761-0.039-5.032 2.168-5.071 4.929s2.168 5.032 4.929 5.071c0.047 1e-3 0.094 1e-3 0.141 0h14.182c0.537 0.088 1.084 0.088 1.621 0h9.197c2.761 0.039 5.032-2.168 5.071-4.929s-2.168-5.032-4.929-5.071c-0.047-1e-3 -0.094-1e-3 -0.141 0h-5v-55c-1e-3 -2.762-2.241-4.999-5.003-4.998-0.047 0-0.095 1e-3 -0.143 2e-3zm-112.64 0.034c-9.609 0-17.5 7.891-17.5 17.5v35c0 9.609 7.891 17.5 17.5 17.5s17.5-7.891 17.5-17.5v-35c0-9.609-7.891-17.5-17.5-17.5zm165.43 0c-9.609 0-17.5 7.891-17.5 17.5v35c0 9.609 7.891 17.5 17.5 17.5s17.5-7.891 17.5-17.5v-35c0-9.609-7.892-17.5-17.5-17.5zm55.143 0c-9.609 0-17.5 7.891-17.5 17.5v35c0 9.609 7.891 17.5 17.5 17.5s17.5-7.891 17.5-17.5v-35c0-9.609-7.892-17.5-17.5-17.5zm-220.57 10c4.241 0 7.5 3.259 7.5 7.5v35c0 4.241-3.259 7.5-7.5 7.5s-7.5-3.259-7.5-7.5v-35c0-4.242 3.259-7.5 7.5-7.5zm165.43 0c4.241 0 7.5 3.259 7.5 7.5v35c0 4.241-3.259 7.5-7.5 7.5s-7.5-3.259-7.5-7.5v-35c0-4.242 3.258-7.5 7.5-7.5zm55.143 0c4.241 0 7.5 3.259 7.5 7.5v35c0 4.241-3.259 7.5-7.5 7.5s-7.5-3.259-7.5-7.5v-35c0-4.242 3.258-7.5 7.5-7.5zm-218.22 80.037c-1.275 0.037-2.487 0.56-3.389 1.461l-15 15c-1.952 1.954-1.949 5.121 5e-3 7.072 1.952 1.95 5.115 1.95 7.067 0l6.463-6.463v42.928h-10c-2.761-0.039-5.032 2.168-5.071 4.929s2.168 5.032 4.929 5.071c0.047 1e-3 0.094 1e-3 0.141 0h14.182c0.537 0.088 1.084 0.088 1.621 0h9.197c2.761 0.039 5.032-2.168 5.071-4.929s-2.168-5.032-4.929-5.071c-0.047-1e-3 -0.094-1e-3 -0.141 0h-5v-55c0-2.762-2.239-5-5.001-5-0.048 0-0.097 0-0.145 2e-3zm110.28 0c-1.275 0.037-2.487 0.56-3.389 1.461l-15 15c-1.976 1.93-2.013 5.095-0.084 7.071 1.93 1.976 5.095 2.013 7.071 0.084 0.028-0.027 0.056-0.055 0.083-0.083l6.465-6.465v42.93h-10c-2.761-0.039-5.032 2.168-5.071 4.929s2.168 5.032 4.929 5.071c0.047 1e-3 0.094 1e-3 0.141 0h14.182c0.537 0.088 1.084 0.088 1.621 0h9.197c2.761 0.039 5.032-2.168 5.071-4.929s-2.168-5.032-4.929-5.071c-0.047-1e-3 -0.094-1e-3 -0.141 0h-5v-55c0-2.762-2.239-5-5.001-5-0.048 0-0.097 0-0.145 2e-3zm55.142 0c-1.275 0.037-2.487 0.56-3.389 1.461l-15 15c-1.976 1.93-2.013 5.095-0.084 7.071 1.93 1.976 5.095 2.013 7.071 0.084 0.028-0.027 0.056-0.055 0.083-0.083l6.465-6.465v42.93h-10c-2.761-0.039-5.032 2.168-5.071 4.929s2.168 5.032 4.929 5.071c0.047 1e-3 0.094 1e-3 0.141 0h14.182c0.537 0.088 1.084 0.088 1.621 0h9.197c2.761 0.039 5.032-2.168 5.071-4.929s-2.168-5.032-4.929-5.071c-0.047-1e-3 -0.094-1e-3 -0.141 0h-5v-55c0-2.762-2.239-5-5.001-5-0.047 0-0.096 0-0.145 2e-3zm-112.64 0.033c-9.609 0-17.5 7.891-17.5 17.5v35c0 9.609 7.891 17.5 17.5 17.5s17.5-7.891 17.5-17.5v-35c0-9.609-7.892-17.5-17.5-17.5zm165.43 0c-9.609 0-17.5 7.891-17.5 17.5v35c0 9.609 7.891 17.5 17.5 17.5s17.5-7.891 17.5-17.5v-35c0-9.609-7.892-17.5-17.5-17.5zm-165.43 10c4.241 0 7.5 3.259 7.5 7.5v35c0 4.241-3.259 7.5-7.5 7.5s-7.5-3.259-7.5-7.5v-35c0-4.242 3.258-7.5 7.5-7.5zm165.43 0c4.241 0 7.5 3.259 7.5 7.5v35c0 4.241-3.259 7.5-7.5 7.5s-7.5-3.259-7.5-7.5v-35c0-4.242 3.258-7.5 7.5-7.5zm-218.22 80.037c-1.275 0.037-2.487 0.56-3.389 1.461l-15 15c-1.953 1.953-1.953 5.119 0 7.072s5.119 1.953 7.072 0l6.463-6.463v42.926h-10c-2.761-0.039-5.032 2.168-5.071 4.929s2.168 5.032 4.929 5.071c0.047 1e-3 0.094 1e-3 0.141 0h14.182c0.537 0.088 1.084 0.088 1.621 0h9.197c2.761 0.039 5.032-2.168 5.071-4.929s-2.168-5.032-4.929-5.071c-0.047-1e-3 -0.094-1e-3 -0.141 0h-5v-55c-1e-3 -2.762-2.241-4.999-5.003-4.998-0.047 0-0.095 1e-3 -0.143 2e-3zm55.142 0c-1.275 0.037-2.487 0.56-3.389 1.461l-15 15c-1.953 1.953-1.953 5.119 0 7.072s5.119 1.953 7.072 0l6.463-6.463v42.926h-10c-2.761-0.039-5.032 2.168-5.071 4.929s2.168 5.032 4.929 5.071c0.047 1e-3 0.094 1e-3 0.141 0h14.182c0.535 0.088 1.08 0.088 1.615 0h9.203c2.761 0.039 5.032-2.168 5.071-4.929s-2.168-5.032-4.929-5.071c-0.047-1e-3 -0.094-1e-3 -0.141 0h-5v-55c-1e-3 -2.762-2.241-4.999-5.003-4.998-0.047 0-0.095 1e-3 -0.143 2e-3zm55.143 0c-1.275 0.037-2.487 0.56-3.389 1.461l-15 15c-1.976 1.93-2.013 5.095-0.084 7.071 1.93 1.976 5.095 2.013 7.071 0.084 0.028-0.027 0.056-0.055 0.083-0.083l6.465-6.465v42.928h-10c-2.761-0.039-5.032 2.168-5.071 4.929s2.168 5.032 4.929 5.071c0.047 1e-3 0.094 1e-3 0.141 0h14.182c0.537 0.088 1.084 0.088 1.621 0h9.197c2.761 0.039 5.032-2.168 5.071-4.929s-2.168-5.032-4.929-5.071c-0.047-1e-3 -0.094-1e-3 -0.141 0h-5v-55c-1e-3 -2.762-2.241-4.999-5.003-4.998-0.047 0-0.095 1e-3 -0.143 2e-3zm55.142 0c-1.275 0.037-2.487 0.56-3.389 1.461l-15 15c-1.976 1.93-2.013 5.095-0.084 7.071 1.93 1.976 5.095 2.013 7.071 0.084 0.028-0.027 0.056-0.055 0.083-0.083l6.465-6.465v42.928h-10c-2.761-0.039-5.032 2.168-5.071 4.929s2.168 5.032 4.929 5.071c0.047 1e-3 0.094 1e-3 0.141 0h14.182c0.537 0.088 1.084 0.088 1.621 0h9.197c2.761 0.039 5.032-2.168 5.071-4.929s-2.168-5.032-4.929-5.071c-0.047-1e-3 -0.094-1e-3 -0.141 0h-5v-55c-1e-3 -2.762-2.241-4.999-5.003-4.998-0.047 0-0.095 1e-3 -0.143 2e-3zm52.79 0.033c-9.609 0-17.5 7.891-17.5 17.5v35c0 9.609 7.891 17.5 17.5 17.5s17.5-7.891 17.5-17.5v-35c0-9.608-7.892-17.5-17.5-17.5zm0 10c4.241 0 7.5 3.259 7.5 7.5v35c0 4.241-3.259 7.5-7.5 7.5s-7.5-3.259-7.5-7.5v-35c0-4.241 3.258-7.5 7.5-7.5z" display="none" fill="url(#linearGradient10024)"/><path d="m348.04 129.48c-1.2878 0.0374-2.512 0.56564-3.4231 1.4757l-15.151 15.151c-1.9949 1.9494-2.0323 5.1473-0.0828 7.1422 1.9494 1.9949 5.1473 2.0323 7.1422 0.0828 0.0283-0.0273 0.0566-0.0556 0.0838-0.0838l6.5281-6.5281v43.36h-10.101c-2.7888-0.0394-5.0827 2.1898-5.1221 4.9786s2.1898 5.0827 4.9786 5.1221c0.0475 1e-3 0.0949 1e-3 0.14242 0h14.325c0.54039 0.0889 1.0909 0.0889 1.6313 0h9.2957c2.7888 0.0394 5.0827-2.1898 5.1221-4.9786s-2.1898-5.0827-4.9786-5.1221c-0.0475-1e-3 -0.0949-1e-3 -0.14242 0h-5.0504v-55.554c-1e-3 -2.7898-2.2636-5.0493-5.0534-5.0483-0.0475 0-0.096 1e-3 -0.14444 2e-3zm55.698 0c-1.2878 0.0374-2.512 0.56564-3.4231 1.4757l-15.151 15.151c-2.0121 1.9323-2.0777 5.1291-0.14545 7.1412 1.9323 2.0121 5.1291 2.0777 7.1412 0.14545 0.0495-0.0475 0.098-0.096 0.14545-0.14545l6.5301-6.5301v43.362h-10.101c-2.7888-0.0394-5.0827 2.1898-5.1221 4.9786s2.1898 5.0827 4.9786 5.1221c0.0475 1e-3 0.095 1e-3 0.14242 0h14.325c0.5424 0.0889 1.0949 0.0889 1.6373 0h9.2896c2.7888 0.0394 5.0827-2.1898 5.1221-4.9786s-2.1898-5.0827-4.9786-5.1221c-0.0475-1e-3 -0.095-1e-3 -0.14242 0h-5.0504v-55.554c-1e-3 -2.7898-2.2636-5.0493-5.0534-5.0483-0.0475 0-0.0959 1e-3 -0.14444 2e-3zm-113.77 0.0343c-9.7058 0-17.676 7.9705-17.676 17.676v35.352c0 9.7058 7.9705 17.676 17.676 17.676 9.7058 0 17.676-7.9705 17.676-17.676v-35.352c0-9.7058-7.9705-17.676-17.676-17.676zm167.09 0c-9.7058 0-17.676 7.9705-17.676 17.676v35.352c0 9.7058 7.9705 17.676 17.676 17.676 9.7058 0 17.676-7.9705 17.676-17.676v-35.352c0-9.7058-7.9715-17.676-17.676-17.676zm55.698 0c-9.7058 0-17.676 7.9705-17.676 17.676v35.352c0 9.7058 7.9705 17.676 17.676 17.676s17.676-7.9705 17.676-17.676v-35.352c0-9.7058-7.9715-17.676-17.676-17.676zm-222.79 10.101c4.2837 0 7.5755 3.2918 7.5755 7.5755v35.352c0 4.2837-3.2918 7.5755-7.5755 7.5755s-7.5755-3.2918-7.5755-7.5755v-35.352c0-4.2847 3.2918-7.5755 7.5755-7.5755zm167.09 0c4.2837 0 7.5755 3.2918 7.5755 7.5755v35.352c0 4.2837-3.2918 7.5755-7.5755 7.5755s-7.5755-3.2918-7.5755-7.5755v-35.352c0-4.2847 3.2908-7.5755 7.5755-7.5755zm55.698 0c4.2837 0 7.5755 3.2918 7.5755 7.5755v35.352c0 4.2837-3.2918 7.5755-7.5755 7.5755s-7.5755-3.2918-7.5755-7.5755v-35.352c0-4.2847 3.2908-7.5755 7.5755-7.5755zm-220.41 80.843c-1.2878 0.0374-2.512 0.56564-3.4231 1.4757l-15.151 15.151c-1.9717 1.9737-1.9686 5.1726 5e-3 7.1432 1.9717 1.9696 5.1665 1.9696 7.1382 0l6.5281-6.5281v43.36h-10.101c-2.7888-0.0394-5.0827 2.1898-5.1221 4.9786s2.1898 5.0827 4.9786 5.1221c0.0475 1e-3 0.0949 1e-3 0.14242 0h14.325c0.54241 0.0889 1.0949 0.0889 1.6373 0h9.2896c2.7888 0.0394 5.0827-2.1898 5.1221-4.9786s-2.1898-5.0827-4.9786-5.1221c-0.0475-1e-3 -0.0949-1e-3 -0.14242 0h-5.0504v-55.554c0-2.7898-2.2616-5.0504-5.0514-5.0504-0.0485 0-0.098 0-0.14646 2e-3zm111.4 0c-1.2878 0.0374-2.512 0.56564-3.4231 1.4757l-15.151 15.151c-1.9959 1.9494-2.0333 5.1463-0.0848 7.1422 1.9494 1.9959 5.1463 2.0333 7.1422 0.0848 0.0283-0.0273 0.0566-0.0555 0.0838-0.0838l6.5301-6.5301v43.362h-10.101c-2.7888-0.0394-5.0827 2.1898-5.1221 4.9786s2.1898 5.0827 4.9786 5.1221c0.0475 1e-3 0.095 1e-3 0.14242 0h14.325c0.5424 0.0889 1.0949 0.0889 1.6373 0h9.2896c2.7888 0.0394 5.0827-2.1898 5.1221-4.9786s-2.1898-5.0827-4.9786-5.1221c-0.0475-1e-3 -0.095-1e-3 -0.14242 0h-5.0504v-55.554c0-2.7898-2.2615-5.0504-5.0514-5.0504-0.0485 0-0.098 0-0.14646 2e-3zm55.697 0c-1.2878 0.0374-2.512 0.56564-3.4231 1.4757l-15.151 15.151c-1.9959 1.9494-2.0333 5.1463-0.0848 7.1422 1.9494 1.9959 5.1463 2.0333 7.1422 0.0848 0.0283-0.0273 0.0566-0.0555 0.0838-0.0838l6.5301-6.5301v43.362h-10.101c-2.7888-0.0394-5.0827 2.1898-5.1221 4.9786s2.1898 5.0827 4.9786 5.1221c0.0475 1e-3 0.0949 1e-3 0.14242 0h14.325c0.5424 0.0889 1.0949 0.0889 1.6373 0h9.2896c2.7888 0.0394 5.0827-2.1898 5.1221-4.9786s-2.1898-5.0827-4.9786-5.1221c-0.0475-1e-3 -0.095-1e-3 -0.14242 0h-5.0504v-55.554c0-2.7898-2.2616-5.0504-5.0514-5.0504-0.0475 0-0.097 0-0.14646 2e-3zm-113.77 0.0333c-9.7058 0-17.676 7.9705-17.676 17.676v35.352c0 9.7058 7.9705 17.676 17.676 17.676 9.7058 0 17.676-7.9705 17.676-17.676v-35.352c0-9.7058-7.9715-17.676-17.676-17.676zm167.09 0c-9.7058 0-17.676 7.9705-17.676 17.676v35.352c0 9.7058 7.9705 17.676 17.676 17.676s17.676-7.9705 17.676-17.676v-35.352c0-9.7058-7.9715-17.676-17.676-17.676zm-167.09 10.101c4.2837 0 7.5755 3.2918 7.5755 7.5755v35.352c0 4.2837-3.2918 7.5755-7.5755 7.5755s-7.5755-3.2918-7.5755-7.5755v-35.352c0-4.2847 3.2908-7.5755 7.5755-7.5755zm167.09 0c4.2837 0 7.5755 3.2918 7.5755 7.5755v35.352c0 4.2837-3.2918 7.5755-7.5755 7.5755s-7.5755-3.2918-7.5755-7.5755v-35.352c0-4.2847 3.2908-7.5755 7.5755-7.5755zm-220.41 80.843c-1.2878 0.0374-2.512 0.56564-3.4231 1.4757l-15.151 15.151c-1.9727 1.9727-1.9727 5.1706 0 7.1432s5.1706 1.9727 7.1432 0l6.5281-6.5281v43.358h-10.101c-2.7888-0.0394-5.0827 2.1898-5.1221 4.9786s2.1898 5.0827 4.9786 5.1221c0.0475 1e-3 0.0949 1e-3 0.14242 0h14.325c0.54241 0.0889 1.0949 0.0889 1.6373 0h9.2896c2.7888 0.0394 5.0827-2.1898 5.1221-4.9786s-2.1898-5.0827-4.9786-5.1221c-0.0475-1e-3 -0.0949-1e-3 -0.14242 0h-5.0504v-55.554c-1e-3 -2.7898-2.2636-5.0493-5.0534-5.0483-0.0475 0-0.096 1e-3 -0.14444 2e-3zm55.697 0c-1.2878 0.0374-2.512 0.56564-3.4231 1.4757l-15.151 15.151c-1.9727 1.9727-1.9727 5.1706 0 7.1432s5.1706 1.9727 7.1432 0l6.5281-6.5281v43.358h-10.101c-2.7888-0.0394-5.0827 2.1898-5.1221 4.9786s2.1898 5.0827 4.9786 5.1221c0.0475 1e-3 0.0949 1e-3 0.14242 0h14.325c0.54039 0.0889 1.0909 0.0889 1.6313 0h9.2957c2.7888 0.0394 5.0827-2.1898 5.1221-4.9786s-2.1898-5.0827-4.9786-5.1221c-0.0475-1e-3 -0.0949-1e-3 -0.14242 0h-5.0504v-55.554c-1e-3 -2.7898-2.2636-5.0493-5.0534-5.0483-0.0475 0-0.096 1e-3 -0.14444 2e-3zm55.698 0c-1.2878 0.0374-2.512 0.56564-3.4231 1.4757l-15.151 15.151c-1.9959 1.9494-2.0333 5.1463-0.0848 7.1422 1.9494 1.9959 5.1463 2.0333 7.1422 0.0848 0.0283-0.0273 0.0566-0.0556 0.0838-0.0838l6.5301-6.5301v43.36h-10.101c-2.7888-0.0394-5.0827 2.1898-5.1221 4.9786s2.1898 5.0827 4.9786 5.1221c0.0475 1e-3 0.095 1e-3 0.14242 0h14.325c0.5424 0.0889 1.0949 0.0889 1.6373 0h9.2896c2.7888 0.0394 5.0827-2.1898 5.1221-4.9786s-2.1898-5.0827-4.9786-5.1221c-0.0475-1e-3 -0.095-1e-3 -0.14242 0h-5.0504v-55.554c-1e-3 -2.7898-2.2636-5.0493-5.0534-5.0483-0.0475 0-0.0959 1e-3 -0.14444 2e-3zm55.697 0c-1.2878 0.0374-2.512 0.56564-3.4231 1.4757l-15.151 15.151c-1.9959 1.9494-2.0333 5.1463-0.0848 7.1422 1.9494 1.9959 5.1463 2.0333 7.1422 0.0848 0.0283-0.0273 0.0566-0.0556 0.0838-0.0838l6.5301-6.5301v43.36h-10.101c-2.7888-0.0394-5.0827 2.1898-5.1221 4.9786s2.1898 5.0827 4.9786 5.1221c0.0475 1e-3 0.0949 1e-3 0.14242 0h14.325c0.5424 0.0889 1.0949 0.0889 1.6373 0h9.2896c2.7888 0.0394 5.0827-2.1898 5.1221-4.9786s-2.1898-5.0827-4.9786-5.1221c-0.0475-1e-3 -0.095-1e-3 -0.14242 0h-5.0504v-55.554c-1e-3 -2.7898-2.2636-5.0493-5.0534-5.0483-0.0475 0-0.096 1e-3 -0.14444 2e-3zm53.322 0.0333c-9.7058 0-17.676 7.9705-17.676 17.676v35.352c0 9.7058 7.9705 17.676 17.676 17.676s17.676-7.9705 17.676-17.676v-35.352c0-9.7048-7.9715-17.676-17.676-17.676zm0 10.101c4.2837 0 7.5755 3.2918 7.5755 7.5755v35.352c0 4.2837-3.2918 7.5755-7.5755 7.5755s-7.5755-3.2918-7.5755-7.5755v-35.352c0-4.2837 3.2908-7.5755 7.5755-7.5755z" display="inline" fill="#fff" stroke-width="1.0101"/></g><g transform="matrix(11.89,0,0,11.89,258.65,113.17)" display="none"><path d="m4 11a3 3 0 0 0 3-3v-2a3 3 0 0 0-6 0v2a3 3 0 0 0 3 3zm-1-5a1 1 0 0 1 2 0v2a1 1 0 0 1-2 0zm16 0a3 3 0 0 0-6 0v2a3 3 0 0 0 6 0zm-2 2a1 1 0 0 1-2 0v-2a1 1 0 0 1 2 0zm-7 3a1 1 0 0 1-1-1v-6a1 1 0 0 1 2 0v6a1 1 0 0 1-1 1zm13-7v6a1 1 0 0 1-2 0v-6a1 1 0 0 1 2 0zm-16 14v-2a3 3 0 0 0-6 0v2a3 3 0 0 0 6 0zm-4 0v-2a1 1 0 0 1 2 0v2a1 1 0 0 1-2 0zm6 0a3 3 0 0 0 6 0v-2a3 3 0 0 0-6 0zm2-2a1 1 0 0 1 2 0v2a1 1 0 0 1-2 0zm12-2v6a1 1 0 0 1-2 0v-6a1 1 0 0 1 2 0zm-5-1a1 1 0 0 1 1 1v6a1 1 0 0 1-2 0v-6a1 1 0 0 1 1-1z" fill="#fefefe"/></g></g><path id="code--syntax_2_" d="m29 3.5c0 0.276-0.224 0.5-0.5 0.5s-0.5-0.224-0.5-0.5 0.224-0.5 0.5-0.5 0.5 0.224 0.5 0.5zm-2.5-0.5c-0.276 0-0.5 0.224-0.5 0.5s0.224 0.5 0.5 0.5 0.5-0.224 0.5-0.5-0.224-0.5-0.5-0.5zm-2 0c-0.276 0-0.5 0.224-0.5 0.5s0.224 0.5 0.5 0.5 0.5-0.224 0.5-0.5-0.224-0.5-0.5-0.5zm6.5 27.36h-30c-0.199 0-0.36-0.161-0.36-0.36v-28c0-0.199 0.161-0.36 0.36-0.36h30c0.199 0 0.36 0.161 0.36 0.36v28c0 0.199-0.161 0.36-0.36 0.36zm-29.64-0.72h29.28v-24.28h-29.28zm0-25h29.28v-2.28h-29.28zm20.064 16.615-0.51-0.51 3.746-3.745-3.746-3.746 0.51-0.509 4 4c0.141 0.141 0.141 0.369 0 0.509zm-10.509 0-4-4c-0.141-0.141-0.141-0.369 0-0.509l4-4 0.509 0.509-3.746 3.745 3.745 3.745z" display="inline" fill="#fff" stroke="#fff" stroke-width=".51862"/></g></svg>
