<?xml version="1.0" encoding="iso-8859-1"?>

<svg height="800px" width="800px" version="1.1" id="Layer_1" xmlns="http://www.w3.org/2000/svg" xmlns:xlink="http://www.w3.org/1999/xlink" 
	 viewBox="0 0 512 512" xml:space="preserve">
<g>
	<path style="fill:#8AD5DD;" d="M183.284,102.032c-2.064,5.952-4.688,12.168-7.688,18.504l151.592,74.8
		c1.872-6.72,4.488-12.888,7.8-18.456L183.284,102.032z"/>
	<path style="fill:#8AD5DD;" d="M328.756,245.496l-152.744,80.272c3.472,5.48,6.208,11.608,8.232,18.264l152.232-80
		C333.46,257.68,330.828,251.456,328.756,245.496z"/>
</g>
<path style="fill:#DB2B42;" d="M188.244,78.112C188.244,30.664,158.628,0,112.748,0S37.252,30.664,37.252,78.112
	c0,39.552,59.472,118.936,66.264,127.824l9.232,12.192l9.288-12.192c4.752-6.312,35.712-47.696,53.552-85.4
	c3-6.344,5.624-12.56,7.688-18.504C186.34,93.24,188.244,85.04,188.244,78.112z M112.692,103.088
	c-13.504,0-24.448-10.944-24.448-24.448s10.944-24.448,24.448-24.448S137.14,65.136,137.14,78.64S126.196,103.088,112.692,103.088z"
	/>
<circle style="fill:#FFFFFF;" cx="112.652" cy="78.632" r="24.448"/>
<path style="fill:#DB2B42;" d="M390.02,349.264l9.232,12.192l9.288-12.192c6.736-8.944,66.208-88.336,66.208-127.824
	c0-47.448-29.616-78.112-75.496-78.112c-29.128,0-51.664,12.392-64.264,33.56c-3.312,5.56-5.928,11.736-7.8,18.456
	c-2.224,7.976-3.432,16.696-3.432,26.104c0,6.968,1.92,15.216,5,24.056c2.08,5.96,4.704,12.184,7.712,18.536
	C354.324,301.712,385.228,343,390.02,349.264z M399.196,197.512c13.504,0,24.448,10.944,24.448,24.448s-10.944,24.448-24.448,24.448
	c-13.504,0-24.448-10.944-24.448-24.448S385.692,197.512,399.196,197.512z"/>
<circle style="fill:#FFFFFF;" cx="399.196" cy="221.96" r="24.448"/>
<path style="fill:#DB2B42;" d="M112.748,293.864c-45.88,0-75.496,30.664-75.496,78.112c0,39.552,59.472,118.936,66.264,127.824
	l9.232,12.2l9.288-12.2c6.736-8.944,66.208-88.336,66.208-127.824c0-10.144-1.432-19.472-4.008-27.944
	c-2.024-6.656-4.76-12.792-8.232-18.264C163.228,305.608,141.108,293.864,112.748,293.864z M137.14,372.504
	c0,13.504-10.944,24.448-24.448,24.448s-24.448-10.944-24.448-24.448s10.944-24.448,24.448-24.448S137.14,359,137.14,372.504z"/>
<circle style="fill:#FFFFFF;" cx="112.652" cy="372.504" r="24.448"/>
</svg>