<?xml version="1.0" encoding="utf-8"?>

<svg width="800px" height="800px" viewBox="0 0 128 128" xmlns="http://www.w3.org/2000/svg" xmlns:xlink="http://www.w3.org/1999/xlink" aria-hidden="true" role="img" class="iconify iconify--noto" preserveAspectRatio="xMidYMid meet">

<path fill="#f44336" d="M116.87 32.29H11.13L4 49.96h120z">

</path>

<path d="M99.9 26.61H28.1c-1.34 0-2.68.24-3.93.72l-13.05 4.96h105.75l-13.05-4.96c-1.25-.48-2.58-.72-3.92-.72z" fill="#ff7555">

</path>

<path d="M119.97 117.61H8.03c-2.23 0-4.03-1.8-4.03-4.03V49.96h120v63.62c0 2.23-1.8 4.03-4.03 4.03z" fill="#c62828">

</path>

<path fill="none" stroke="#a80707" stroke-width="2.133" stroke-miterlimit="10" d="M4 70.1h120">

</path>

<path d="M41.05 65.28H24.53c-.94 0-1.71.66-1.71 1.47v9.71c0 .81.76 1.47 1.71 1.47h2.45v5.06c0 2.16 2.03 3.91 4.54 3.91h2.55c2.5 0 4.54-1.75 4.54-3.91v-5.06h2.45c.94 0 1.71-.66 1.71-1.47v-9.71c-.02-.81-.78-1.47-1.72-1.47z" fill="#a80707">

</path>

<path d="M39.88 75.92H25.69c-.6 0-1.08-.48-1.08-1.08V64.58c0-.6.48-1.08 1.08-1.08h14.18c.6 0 1.08.48 1.08 1.08v10.26c.01.6-.48 1.08-1.07 1.08z" fill="#558ea0">

</path>

<path fill="none" stroke="#332424" stroke-width="2.83" stroke-miterlimit="10" d="M28.02 70.03h9.53">

</path>

<path d="M37.55 68.62h-9.53v-5.31a2.87 2.87 0 0 1 2.87-2.87h3.8a2.87 2.87 0 0 1 2.87 2.87v5.31z" fill="#82aec0">

</path>

<path d="M28.02 71.28h9.53v10.58a2.87 2.87 0 0 1-2.87 2.87h-3.8a2.87 2.87 0 0 1-2.87-2.87V71.28z" fill="#82aec0">

</path>

<path d="M35.83 79.59c.43 0 .94.36 1.06 1c.06.36-.14 1.1-.42 1.34c-.51.43-1.19.71-1.9.88c-1.1.27-2.3.32-3.39.03c-1.09-.28-2.23-.83-2.56-1.74c-.5-1.39 1.37-1.49 7.21-1.51z" fill="#a1d5e5">

</path>

<g>

<path d="M103.47 65.28H86.95c-.94 0-1.71.66-1.71 1.47v9.71c0 .81.76 1.47 1.71 1.47h2.45v5.06c0 2.16 2.03 3.91 4.54 3.91h2.55c2.5 0 4.54-1.75 4.54-3.91v-5.06h2.45c.94 0 1.71-.66 1.71-1.47v-9.71c-.01-.81-.77-1.47-1.72-1.47z" fill="#a80707">

</path>

<path d="M102.31 75.92H88.12c-.6 0-1.08-.48-1.08-1.08V64.58c0-.6.48-1.08 1.08-1.08h14.18c.6 0 1.08.48 1.08 1.08v10.26c0 .6-.48 1.08-1.07 1.08z" fill="#558ea0">

</path>

<path fill="none" stroke="#332424" stroke-width="2.83" stroke-miterlimit="10" d="M90.45 70.03h9.53">

</path>

<path d="M99.98 68.62h-9.53v-5.31a2.87 2.87 0 0 1 2.87-2.87h3.8a2.87 2.87 0 0 1 2.87 2.87v5.31z" fill="#82aec0">

</path>

<path d="M90.45 71.28h9.53v10.58a2.87 2.87 0 0 1-2.87 2.87h-3.8a2.87 2.87 0 0 1-2.87-2.87V71.28z" fill="#82aec0">

</path>

<path d="M98.55 79.59c.3.01.85.1 1.05.69s-.2 1.21-.71 1.64s-1.19.71-1.9.88c-1.1.27-2.3.32-3.39.03c-1.09-.28-2.07-.9-2.56-1.74c-.78-1.33 1.83-1.74 7.51-1.5z" fill="#a1d5e5">

</path>

</g>

<path d="M90.53 27.05c-.47-.63-2.01-1.27-2.46-1.53c-3.01-1.79-2.7-6.72-4.72-9.92c-1.8-2.86-5.01-5.2-8.39-5.2H56.09c-3.38 0-6.59 2.35-8.39 5.2c-2.02 3.2-1.71 8.13-4.72 9.92c-.44.26-1.99.91-2.46 1.53c-.58.78 0 1.6 0 1.6h5.46c2.67 0 4.17-4.49 4.4-5.1c.91-2.5 2.57-6.19 5.71-6.19h18.87c3.14 0 4.8 3.7 5.71 6.19c.22.61 1.72 5.1 4.4 5.1h5.46s.58-.82 0-1.6z" fill="#424242">

</path>

<path d="M51.22 13.39c1.43-1.19 3.28-1.9 5.14-1.88c.51.01 1.04.07 1.47.35c.43.28.73.81.6 1.31c-.14.53-.69.84-1.2 1.04c-1.85.72-3.99.88-5.46 2.2c-1.01.91-1.54 2.22-2.26 3.37c-.35.56-.82 1.13-1.48 1.2c-.23.02-.48-.03-.63-.2c-.26-.3-.1-.76.07-1.11c.55-1.14.87-2.34 1.46-3.45c.62-1.14 1.43-1.92 2.29-2.83z" fill="#616161">

</path>

<path d="M33.2 63.45c-1.28.05-2.52.72-3.16 1.72c-.15.23-.36.51-.64.45c-.22-.05-.31-.28-.36-.48c-.21-.84-.28-1.81.21-2.58c.51-.81 1.5-1.28 2.46-1.4c1.94-.23 3.38-.32 3.71.89c.39 1.43-1.2 1.36-2.22 1.4z" fill="#a1d5e5">

</path>

<path d="M95.58 63.45c-1.28.05-2.52.72-3.16 1.72c-.15.23-.36.51-.64.45c-.22-.05-.31-.28-.36-.48c-.21-.84-.28-1.81.21-2.58c.51-.81 1.5-1.28 2.46-1.4c1.94-.23 3.38-.32 3.71.89c.4 1.43-1.2 1.36-2.22 1.4z" fill="#a1d5e5">

</path>

</svg>